<svg width="878" height="657" viewBox="0 0 878 657" fill="none" xmlns="http://www.w3.org/2000/svg">
<g clip-path="url(#clip0)">
<path d="M7.9014 0C5.80657 0.00246393 3.79825 0.835725 2.31699 2.31699C0.83572 3.79826 0.00246128 5.80659 0 7.90141V649.1C0.00246128 651.194 0.83572 653.203 2.31699 654.684C3.79825 656.165 5.80657 656.999 7.9014 657.001H869.155C871.249 656.999 873.258 656.165 874.739 654.684C876.22 653.203 877.054 651.194 877.056 649.1V7.90141C877.054 5.80659 876.22 3.79826 874.739 2.31699C873.258 0.835725 871.249 0.00246393 869.155 0H7.9014Z" fill="#E6E6E6"/>
<path d="M25.2842 25.2842V631.717H851.771V25.2842H25.2842Z" fill="white"/>
<path d="M631.27 58.0759C630.812 58.0765 630.373 58.2586 630.049 58.5824C629.726 58.9062 629.544 59.3451 629.543 59.803V199.959C629.544 200.416 629.726 200.855 630.049 201.179C630.373 201.503 630.812 201.685 631.27 201.686H819.526C819.984 201.685 820.423 201.503 820.747 201.179C821.071 200.855 821.253 200.416 821.253 199.959V59.803C821.253 59.3451 821.071 58.9062 820.747 58.5824C820.423 58.2586 819.984 58.0765 819.526 58.0759H631.27Z" fill="#E6E6E6"/>
<path d="M635.07 63.6028V196.159H815.727V63.6028H635.07Z" fill="white"/>
<path d="M631.27 255.534C630.812 255.535 630.373 255.717 630.049 256.041C629.726 256.364 629.544 256.803 629.543 257.261V397.417C629.544 397.875 629.726 398.314 630.049 398.637C630.373 398.961 630.812 399.143 631.27 399.144H819.526C819.984 399.143 820.423 398.961 820.747 398.637C821.071 398.314 821.253 397.875 821.253 397.417V257.261C821.253 256.803 821.071 256.364 820.747 256.041C820.423 255.717 819.984 255.535 819.526 255.534H631.27Z" fill="#E6E6E6"/>
<path d="M635.07 261.061V393.617H815.727V261.061H635.07Z" fill="white"/>
<path d="M631.27 452.992C630.812 452.993 630.373 453.175 630.049 453.499C629.726 453.822 629.544 454.261 629.543 454.719V594.875C629.544 595.333 629.726 595.772 630.049 596.096C630.373 596.419 630.812 596.601 631.27 596.602H819.526C819.984 596.601 820.423 596.419 820.747 596.096C821.071 595.772 821.253 595.333 821.253 594.875V454.719C821.253 454.261 821.071 453.822 820.747 453.499C820.423 453.175 819.984 452.993 819.526 452.992H631.27Z" fill="#E6E6E6"/>
<path d="M635.07 458.519V591.075H815.727V458.519H635.07Z" fill="white"/>
<path d="M781.83 170.604L745.835 145.422H745.823L745.821 145.426C744.596 141.574 743.752 137.612 743.301 133.595C746.68 130.517 749.079 126.512 750.198 122.08C750.343 122.166 750.482 122.261 750.615 122.363C753.769 124.886 759.76 98.0831 749.669 93.0379C749.669 93.0379 742.102 76.6409 727.596 80.4248C713.091 84.2087 704.893 89.8846 704.262 95.5605C703.632 101.236 704.578 109.75 704.578 109.75C704.578 109.75 705.451 103.312 710.038 101.037C707.77 103.624 706.103 106.681 705.158 109.99C704.213 113.298 704.013 116.775 704.572 120.17C705.132 123.565 706.437 126.793 708.394 129.623C710.351 132.453 712.912 134.814 715.891 136.535C714.796 140.294 713.333 145.167 712.105 148.744H712.104L701.104 154.215L677.142 169.349C677.142 169.349 667.688 181.325 664.528 195.205C664.284 196.297 664.029 197.388 663.762 198.48H791.587C787.324 185.599 781.83 170.604 781.83 170.604Z" fill="#E6E6E6"/>
<path d="M773.92 576.09C776.38 574.519 778.986 573.189 781.702 572.118L754.917 540.315L737.215 535.785C734.109 534.041 731.657 531.328 730.235 528.061L739.713 527.968L743.325 507.514C745.52 501.567 744.626 496.352 739.713 492.054C740.595 486.549 738.098 482.495 731.478 480.207C724.892 474.492 715.158 473.121 709.316 482.274C706.957 482.134 704.635 482.91 702.835 484.44C701.034 485.97 699.894 488.136 699.652 490.486C694.286 496.724 700.244 519.617 702.01 528.34L711.43 528.247C710.887 531.474 709.304 534.435 706.923 536.68L706.795 536.552L687.967 545.763L661.183 576.729C663.826 577.765 666.365 579.048 668.767 580.562L666.003 591.074H685.168L690.267 583.663H690.523C690.523 583.536 690.534 583.408 690.534 583.28L694.112 578.076C694.193 582.281 694.077 586.613 693.786 591.074H753.396C753.303 587.368 753.279 583.686 753.279 580.028L759.947 589.703C760.446 588.971 760.98 588.286 761.515 587.589L762.827 591.074H778.089L774.431 577.159C774.327 576.774 774.154 576.412 773.92 576.09V576.09Z" fill="#E6E6E6"/>
<path d="M760.598 354.391L735.288 344.042C734.684 341.649 734.173 339.396 733.848 337.409C736.447 335.932 738.723 333.949 740.542 331.577C742.362 329.205 743.687 326.492 744.441 323.599L747.112 320.73C748.531 319.249 749.618 317.482 750.299 315.547C750.98 313.612 751.24 311.553 751.062 309.51C750.598 305.582 748.608 301.994 745.521 299.521C746.555 292.981 743.593 288.173 735.741 285.455C727.936 278.683 716.379 277.045 709.456 287.906C706.656 287.739 703.9 288.659 701.762 290.474C699.624 292.29 698.269 294.861 697.98 297.651C692.289 304.271 698.154 317.478 700.954 327.595C701.167 328.344 701.598 329.012 702.191 329.517C702.784 330.021 703.514 330.339 704.287 330.429C706.148 333.18 708.596 335.485 711.454 337.177C711.526 340.099 711.182 343.017 710.432 345.842L710.455 344.959L691.58 353.45L691.569 353.218L689.745 354.275L686.853 355.576C686.876 355.692 686.899 355.796 686.923 355.913L686.655 356.064C682.59 358.418 679.475 362.12 677.851 366.529L668.152 394.916H754.987C755.871 391.957 756.958 389.061 758.24 386.251L758.263 385.938L765.975 394.916H789.531L760.598 354.391Z" fill="#E6E6E6"/>
<path d="M330.92 589.789C359 589.789 381.764 567.025 381.764 538.945C381.764 510.864 359 488.101 330.92 488.101C302.84 488.101 280.076 510.864 280.076 538.945C280.076 567.025 302.84 589.789 330.92 589.789Z" fill="#E6E6E6"/>
<path d="M330.921 577.925C352.449 577.925 369.901 560.473 369.901 538.945C369.901 517.416 352.449 499.964 330.921 499.964C309.393 499.964 291.94 517.416 291.94 538.945C291.94 560.473 309.393 577.925 330.921 577.925Z" fill="white"/>
<path d="M350.449 560.234C350.215 560.235 349.984 560.189 349.769 560.1C349.554 560.01 349.358 559.879 349.194 559.714L310.133 520.653C309.814 520.318 309.639 519.871 309.645 519.408C309.651 518.945 309.837 518.502 310.165 518.175C310.492 517.847 310.934 517.661 311.397 517.655C311.86 517.649 312.307 517.824 312.643 518.143L351.704 557.204C351.952 557.452 352.121 557.768 352.189 558.113C352.258 558.457 352.223 558.814 352.088 559.138C351.954 559.463 351.726 559.74 351.435 559.935C351.143 560.13 350.8 560.234 350.449 560.234Z" fill="#B22000"/>
<path d="M330.03 545.57L324.283 539.823C324.251 539.79 324.208 539.769 324.162 539.762C324.117 539.754 324.07 539.761 324.028 539.782C323.987 539.803 323.953 539.836 323.931 539.877C323.909 539.918 323.901 539.965 323.907 540.011C324.139 541.502 324.839 542.88 325.906 543.947C326.973 545.014 328.352 545.714 329.843 545.946C329.889 545.953 329.936 545.944 329.977 545.923C330.018 545.901 330.051 545.867 330.072 545.825C330.092 545.784 330.099 545.737 330.092 545.691C330.085 545.645 330.063 545.603 330.031 545.57L330.03 545.57Z" fill="#B22000"/>
<path d="M331.806 532.287L337.562 538.041C337.595 538.074 337.637 538.096 337.683 538.103C337.729 538.111 337.777 538.104 337.818 538.083C337.86 538.062 337.894 538.029 337.916 537.988C337.938 537.946 337.946 537.899 337.939 537.853C337.708 536.36 337.007 534.979 335.939 533.911C334.871 532.843 333.49 532.142 331.997 531.911C331.951 531.904 331.903 531.911 331.862 531.933C331.82 531.954 331.786 531.988 331.765 532.03C331.744 532.071 331.737 532.119 331.744 532.165C331.751 532.211 331.773 532.254 331.806 532.287V532.287Z" fill="#B22000"/>
<path d="M356.996 540.855C357.363 540.278 357.557 539.609 357.555 538.925C357.553 538.241 357.355 537.572 356.985 536.998C354.137 532.547 350.384 528.746 345.969 525.842C341.494 522.866 336.256 521.245 330.883 521.174C328.173 521.178 325.482 521.619 322.913 522.482C322.841 522.506 322.777 522.548 322.726 522.604C322.674 522.66 322.639 522.728 322.621 522.802C322.604 522.875 322.606 522.952 322.626 523.025C322.647 523.098 322.686 523.164 322.74 523.218L327.982 528.46C328.037 528.515 328.104 528.554 328.179 528.574C328.253 528.595 328.331 528.596 328.406 528.576C330.183 528.143 332.041 528.175 333.802 528.669C335.563 529.162 337.168 530.101 338.461 531.394C339.754 532.687 340.693 534.291 341.186 536.052C341.68 537.813 341.711 539.672 341.278 541.449C341.259 541.523 341.26 541.601 341.281 541.676C341.301 541.75 341.34 541.817 341.395 541.872L348.935 549.417C349.014 549.496 349.119 549.542 349.23 549.547C349.34 549.552 349.449 549.515 349.534 549.444C352.437 546.97 354.952 544.075 356.996 540.855V540.855Z" fill="#B22000"/>
<path d="M330.918 549.581C329.306 549.581 327.714 549.215 326.264 548.511C324.813 547.806 323.541 546.782 322.544 545.514C321.547 544.246 320.851 542.769 320.508 541.193C320.166 539.617 320.185 537.984 320.565 536.417C320.584 536.343 320.583 536.265 320.563 536.19C320.542 536.116 320.503 536.049 320.449 535.994L313.031 528.574C312.953 528.495 312.847 528.449 312.736 528.444C312.625 528.44 312.516 528.477 312.431 528.548C309.581 531.019 307.058 533.842 304.922 536.951C304.52 537.527 304.299 538.21 304.287 538.912C304.274 539.614 304.47 540.304 304.851 540.895C307.652 545.35 311.37 549.157 315.757 552.064C320.238 555.052 325.497 556.658 330.883 556.683C333.62 556.676 336.339 556.244 338.944 555.402C339.016 555.378 339.081 555.337 339.133 555.281C339.185 555.226 339.222 555.157 339.24 555.083C339.258 555.009 339.256 554.932 339.236 554.859C339.215 554.785 339.176 554.719 339.122 554.665L333.855 549.398C333.8 549.344 333.733 549.305 333.659 549.284C333.584 549.264 333.506 549.263 333.432 549.282C332.609 549.481 331.765 549.582 330.918 549.581V549.581Z" fill="#B22000"/>
<path d="M138.013 589.789C166.093 589.789 188.857 567.025 188.857 538.945C188.857 510.864 166.093 488.101 138.013 488.101C109.933 488.101 87.1689 510.864 87.1689 538.945C87.1689 567.025 109.933 589.789 138.013 589.789Z" fill="#E6E6E6"/>
<path d="M138.013 577.925C159.541 577.925 176.993 560.473 176.993 538.945C176.993 517.416 159.541 499.964 138.013 499.964C116.484 499.964 99.0322 517.416 99.0322 538.945C99.0322 560.473 116.484 577.925 138.013 577.925Z" fill="white"/>
<path d="M152.988 563.801C150.822 563.801 147.779 563.017 143.223 560.472C137.56 557.445 132.388 553.578 127.886 549C123.225 544.561 119.333 539.38 116.368 533.668C112.28 526.233 112.977 522.336 113.756 520.67C114.655 518.849 116.07 517.332 117.823 516.307C118.828 515.648 119.892 515.083 121.001 514.62C121.112 514.572 121.215 514.527 121.307 514.486C121.674 514.278 122.081 514.151 122.501 514.112C122.921 514.074 123.345 514.126 123.743 514.264C124.629 514.69 125.417 515.294 126.058 516.039C128.366 518.629 130.313 521.52 131.846 524.632C132.476 525.708 132.864 526.909 132.981 528.15C132.889 529.379 132.392 530.543 131.566 531.458C131.421 531.657 131.277 531.847 131.137 532.031C130.293 533.141 130.107 533.461 130.229 534.034C130.477 535.185 132.322 538.61 135.355 541.636C138.388 544.662 141.714 546.391 142.87 546.638C143.467 546.765 143.794 546.572 144.939 545.698C145.103 545.572 145.272 545.442 145.449 545.313C146.366 544.447 147.55 543.918 148.806 543.81H148.813C150.073 543.94 151.284 544.365 152.348 545.051C154.346 546.058 158.908 548.778 160.908 550.797C161.655 551.435 162.261 552.222 162.689 553.106C162.827 553.505 162.878 553.929 162.84 554.35C162.802 554.771 162.675 555.179 162.468 555.547C162.427 555.639 162.381 555.74 162.333 555.852C161.866 556.959 161.298 558.021 160.637 559.024C159.609 560.775 158.089 562.187 156.267 563.083C155.242 563.568 154.121 563.813 152.988 563.801V563.801Z" fill="#B22000"/>
<path d="M525.324 589.789C553.405 589.789 576.168 567.025 576.168 538.945C576.168 510.864 553.405 488.101 525.324 488.101C497.244 488.101 474.48 510.864 474.48 538.945C474.48 567.025 497.244 589.789 525.324 589.789Z" fill="#E6E6E6"/>
<path d="M525.324 577.925C546.852 577.925 564.305 560.473 564.305 538.945C564.305 517.416 546.852 499.964 525.324 499.964C503.796 499.964 486.344 517.416 486.344 538.945C486.344 560.473 503.796 577.925 525.324 577.925Z" fill="white"/>
<path d="M532.426 562.026H518.222C517.751 562.026 517.299 561.839 516.966 561.506C516.633 561.173 516.446 560.721 516.446 560.251C516.446 559.78 516.633 559.328 516.966 558.995C517.299 558.662 517.751 558.475 518.222 558.475H532.426C532.897 558.475 533.348 558.662 533.681 558.995C534.014 559.328 534.201 559.78 534.201 560.251C534.201 560.721 534.014 561.173 533.681 561.506C533.348 561.839 532.897 562.026 532.426 562.026V562.026Z" fill="#B22000"/>
<path d="M525.324 553.149C521.088 553.144 517.026 551.459 514.03 548.463C511.035 545.467 509.35 541.406 509.345 537.169V533.618C509.345 533.147 509.532 532.696 509.865 532.363C510.198 532.03 510.649 531.843 511.12 531.843C511.591 531.843 512.043 532.03 512.376 532.363C512.709 532.696 512.896 533.147 512.896 533.618V537.169C512.899 540.464 514.209 543.622 516.54 545.95C518.87 548.279 522.03 549.587 525.324 549.587C528.618 549.587 531.778 548.279 534.108 545.95C536.439 543.622 537.75 540.464 537.753 537.169V533.618C537.753 533.147 537.94 532.696 538.273 532.363C538.605 532.03 539.057 531.843 539.528 531.843C539.999 531.843 540.45 532.03 540.783 532.363C541.116 532.696 541.304 533.147 541.304 533.618V537.169C541.299 541.406 539.614 545.467 536.618 548.463C533.622 551.459 529.561 553.144 525.324 553.149Z" fill="#B22000"/>
<path d="M525.324 562.026C525.091 562.026 524.86 561.98 524.645 561.891C524.429 561.802 524.234 561.671 524.069 561.506C523.904 561.341 523.773 561.145 523.684 560.93C523.595 560.715 523.549 560.484 523.549 560.251V551.373C523.549 550.902 523.736 550.451 524.069 550.118C524.402 549.785 524.853 549.598 525.324 549.598C525.795 549.598 526.247 549.785 526.58 550.118C526.913 550.451 527.1 550.902 527.1 551.373V560.251C527.1 560.484 527.054 560.715 526.965 560.93C526.875 561.145 526.745 561.341 526.58 561.506C526.415 561.671 526.219 561.802 526.004 561.891C525.788 561.98 525.558 562.026 525.324 562.026V562.026Z" fill="#B22000"/>
<path d="M525.324 546.047C524.152 546.044 522.993 545.806 521.915 545.346C520.837 544.887 519.862 544.216 519.049 543.372C517.383 541.693 516.448 539.423 516.446 537.058V524.741C516.442 523.579 516.666 522.429 517.106 521.354C517.546 520.279 518.194 519.302 519.012 518.478C519.83 517.653 520.802 516.998 521.873 516.55C522.945 516.101 524.094 515.868 525.255 515.863C525.278 515.863 525.301 515.863 525.324 515.863C526.493 515.851 527.653 516.072 528.736 516.513C529.819 516.955 530.802 517.608 531.629 518.435C532.456 519.262 533.11 520.246 533.551 521.329C533.993 522.411 534.214 523.571 534.201 524.741V537.058C534.213 539.426 533.285 541.703 531.621 543.388C529.957 545.073 527.692 546.029 525.324 546.047Z" fill="#B22000"/>
<path d="M71.4008 58.353C70.1704 58.3545 68.9908 58.8439 68.1207 59.714C67.2506 60.584 66.7612 61.7637 66.7598 62.9941V439.618C66.7612 440.848 67.2506 442.028 68.1207 442.898C68.9908 443.768 70.1704 444.258 71.4008 444.259H577.279C578.51 444.258 579.69 443.768 580.56 442.898C581.43 442.028 581.919 440.848 581.921 439.618V62.9941C581.919 61.7637 581.43 60.584 580.56 59.714C579.69 58.8439 578.51 58.3545 577.279 58.353H71.4008Z" fill="#E6E6E6"/>
<path d="M81.6113 73.2046V429.408H567.069V73.2046H81.6113Z" fill="white"/>
<path d="M416.816 429.408L417.69 425.984L410.102 394.548L409.362 391.462L408.804 389.156L409.693 388.857L454.526 373.918L455.1 382.214L458.351 429.408H416.816Z" fill="#FFB9B9"/>
<path d="M238.579 394.548L230.991 425.984L231.865 429.408H190.33L193.581 382.214L194.155 373.918L239.878 389.156L238.579 394.548Z" fill="#FFB9B9"/>
<path d="M361.808 268.497L289.413 276.118C297.018 256.542 295.611 234.076 289.413 210.073H341.487C344.908 230.557 351.779 250.312 361.808 268.497V268.497Z" fill="#FFB9B9"/>
<path d="M316.085 240.555C337.829 240.555 355.457 222.928 355.457 201.183C355.457 179.438 337.829 161.81 316.085 161.81C294.34 161.81 276.712 179.438 276.712 201.183C276.712 222.928 294.34 240.555 316.085 240.555Z" fill="#FFB9B9"/>
<path d="M429.127 283.741C420.815 320.474 413.975 355.398 409.693 388.857C409.575 389.731 409.465 390.596 409.363 391.462C409.221 392.596 409.079 393.729 408.953 394.862C407.552 406.551 406.495 418.066 405.781 429.408H247.324C247.489 418.711 247.135 407.771 246.34 396.681C243.609 358.64 235.588 318.861 224.64 281.198L224.718 281.167L293.99 257.239L294.494 257.066C314.463 266.283 334.345 266.708 354.069 252.721C354.132 252.682 354.187 252.635 354.25 252.595L418.823 279.459L418.847 279.467L429.127 283.741Z" fill="#0092B2"/>
<path d="M476.115 376.454L397.37 398.046L416.421 278.658L428.574 282.709C433.03 284.194 437.044 286.771 440.251 290.203C443.458 293.636 445.755 297.816 446.934 302.364L476.115 376.454Z" fill="#0092B2"/>
<path d="M172.565 376.454L251.311 398.046L232.259 278.658L220.107 282.709C215.651 284.194 211.636 286.771 208.43 290.203C205.223 293.636 202.926 297.816 201.747 302.364L172.565 376.454Z" fill="#0092B2"/>
<path d="M313.555 134.58C306.857 134.887 300.333 136.808 294.537 140.179C293.205 140.954 293.821 143.752 292.589 144.664C291.038 145.813 287.669 145.115 286.295 146.461C281.861 150.79 278.447 156.052 276.301 161.866C274.156 167.68 273.332 173.898 273.89 180.07L276.078 201.818L281.238 196.175C290.489 185.916 303.333 179.611 317.107 178.565C317.692 178.525 318.278 178.494 318.866 178.471L314.896 171.525L321.795 178.424C324.942 178.458 328.083 178.714 331.194 179.189L325.915 169.95L336.044 180.08L336.045 180.08C340.188 180.991 344.058 182.862 347.345 185.543C350.632 188.224 353.243 191.639 354.968 195.514L356.093 198.008L357.353 177.26C357.478 171.526 356.421 165.827 354.25 160.518C352.078 155.209 348.838 150.404 344.73 146.401C340.622 142.398 335.735 139.283 330.371 137.249C325.008 135.215 319.284 134.307 313.555 134.58V134.58Z" fill="#2F2E41"/>
<path d="M277.115 207.731C278.854 207.731 280.264 204.383 280.264 200.254C280.264 196.124 278.854 192.776 277.115 192.776C275.376 192.776 273.967 196.124 273.967 200.254C273.967 204.383 275.376 207.731 277.115 207.731Z" fill="#FFB9B9"/>
<path d="M355.824 205.37C357.563 205.37 358.973 202.022 358.973 197.892C358.973 193.763 357.563 190.415 355.824 190.415C354.085 190.415 352.676 193.763 352.676 197.892C352.676 202.022 354.085 205.37 355.824 205.37Z" fill="#FFB9B9"/>
</g>
<defs>
<clipPath id="clip0">
<rect width="877.056" height="657.001" fill="white"/>
</clipPath>
</defs>
</svg>
