<svg width="395" height="279" viewBox="0 0 395 279" fill="none" xmlns="http://www.w3.org/2000/svg">
<g clip-path="url(#clip0)">
<path opacity="0.1" d="M371.373 151.448C357.487 169.203 362.069 194.547 370.096 214.738C372.785 221.497 375.839 228.646 374.445 236C372.742 244.99 364.74 251.725 356.423 255.394C341.259 262.08 323.347 261.013 309.783 252.588C298.078 245.317 289.838 233.233 277.906 226.309C257.936 214.724 232.011 219.9 209.785 228.745C194.061 235.001 176.837 243.059 161.514 237.282C150.731 233.217 143.47 222.868 139.65 211.806C137.805 206.465 136.514 200.668 132.84 196.487C130.655 194.001 127.767 192.269 124.798 190.822C97.7028 177.601 62.8497 185.864 36.5804 171.113C18.8453 161.151 7.80699 141.82 3.22069 121.496C-1.36561 101.173 -0.230565 79.7194 1.59615 58.6327C2.89436 43.6472 4.94809 27.6338 14.6173 15.8575C24.8433 3.40709 41.9826 -1.54071 57.3092 0.409325C72.6359 2.35936 86.3771 10.2917 98.398 19.7609C113.434 31.5735 127.267 46.4036 145.967 50.8887C158.704 53.9427 172.236 51.7811 185.477 50.8259C207.611 49.2328 229.666 51.0672 251.587 53.1395C272.571 55.1226 293.701 57.337 313.575 63.8382C327.639 68.439 338.787 77.1348 352.028 83.0775C360.658 86.9511 370.153 87.8501 378.276 92.8541C388.3 99.0181 397.359 109.938 394.418 123.043C391.641 135.5 378.751 142.025 371.373 151.448Z" fill="#0092B2"/>
<g opacity="0.5">
<path opacity="0.5" d="M303.267 232.431C303.267 232.431 304.437 200.12 323.197 181.862C331.072 174.201 336.243 164.47 337.612 153.94C338.252 148.943 338.4 143.901 338.052 138.879" stroke="#535461" stroke-width="2" stroke-miterlimit="10"/>
<path opacity="0.5" d="M349.803 127.314C348.519 130.923 337.786 139.212 337.786 139.212C337.786 139.212 334.498 126.583 335.782 122.978C336.087 122.12 336.571 121.326 337.205 120.643C337.84 119.959 338.612 119.398 339.479 118.993C340.346 118.587 341.29 118.345 342.258 118.28C343.225 118.214 344.197 118.327 345.118 118.611C346.038 118.896 346.89 119.347 347.623 119.938C348.357 120.529 348.959 121.249 349.394 122.057C349.829 122.865 350.089 123.744 350.159 124.646C350.23 125.547 350.109 126.453 349.803 127.311V127.314Z" fill="#0092B2"/>
<path opacity="0.5" d="M354.276 150.88C351.083 153.259 337.25 154.786 337.25 154.786C337.25 154.786 341.861 142.521 345.053 140.144C345.804 139.535 346.679 139.074 347.626 138.788C348.573 138.503 349.573 138.398 350.564 138.481C351.555 138.564 352.518 138.834 353.395 139.272C354.272 139.711 355.045 140.31 355.667 141.035C356.289 141.759 356.748 142.592 357.015 143.486C357.283 144.379 357.354 145.314 357.224 146.233C357.094 147.153 356.765 148.039 356.259 148.837C355.752 149.635 355.078 150.33 354.276 150.88Z" fill="#0092B2"/>
<path opacity="0.5" d="M341.62 184.87C337.584 185.425 324.804 180.242 324.804 180.242C324.804 180.242 335.423 171.821 339.46 171.266C340.42 171.133 341.398 171.179 342.338 171.399C343.279 171.619 344.164 172.009 344.943 172.548C345.722 173.087 346.379 173.763 346.877 174.539C347.376 175.314 347.705 176.174 347.847 177.068C347.989 177.962 347.94 178.873 347.704 179.75C347.468 180.627 347.049 181.451 346.471 182.177C345.892 182.903 345.166 183.515 344.334 183.979C343.502 184.444 342.58 184.751 341.62 184.883V184.87Z" fill="#0092B2"/>
<path opacity="0.5" d="M325.826 208.581C321.949 209.764 308.41 206.657 308.41 206.657C308.41 206.657 317.352 196.685 321.229 195.502C323.09 194.932 325.118 195.075 326.867 195.898C328.615 196.722 329.941 198.159 330.552 199.893C331.164 201.627 331.011 203.517 330.127 205.146C329.244 206.775 327.701 208.011 325.84 208.581H325.826Z" fill="#0092B2"/>
<path opacity="0.5" d="M322.279 150.936C324.162 154.307 336.186 160.907 336.186 160.907C336.186 160.907 337.279 147.955 335.395 144.58C334.948 143.778 334.335 143.067 333.592 142.486C332.849 141.905 331.991 141.466 331.066 141.194C330.141 140.922 329.168 140.822 328.202 140.901C327.236 140.979 326.296 141.235 325.435 141.652C324.575 142.069 323.811 142.64 323.188 143.332C322.564 144.024 322.093 144.824 321.801 145.686C321.509 146.547 321.403 147.454 321.487 148.355C321.571 149.255 321.845 150.131 322.293 150.932L322.279 150.936Z" fill="#0092B2"/>
<path opacity="0.5" d="M304.186 178.881C307.066 181.574 320.644 184.523 320.644 184.523C320.644 184.523 317.526 171.857 314.649 169.164C313.267 167.871 311.39 167.142 309.431 167.139C307.473 167.136 305.593 167.857 304.205 169.145C302.817 170.434 302.036 172.183 302.032 174.008C302.029 175.833 302.803 177.584 304.186 178.877V178.881Z" fill="#0092B2"/>
<path opacity="0.5" d="M290.6 208.293C292.949 211.4 305.799 216.447 305.799 216.447C305.799 216.447 305.026 203.474 302.675 200.364C302.13 199.593 301.426 198.932 300.602 198.42C299.778 197.908 298.852 197.555 297.879 197.384C296.906 197.212 295.906 197.224 294.938 197.42C293.97 197.616 293.054 197.991 292.245 198.523C291.436 199.055 290.75 199.733 290.228 200.518C289.706 201.302 289.359 202.176 289.207 203.088C289.055 203.999 289.101 204.931 289.343 205.825C289.585 206.72 290.017 207.561 290.615 208.296L290.6 208.293Z" fill="#0092B2"/>
<path opacity="0.5" d="M307.389 219.058C307.389 219.058 296.747 204.634 298.613 191.063C299.435 185.376 298.255 179.593 295.251 174.584C293.804 172.216 292.127 169.977 290.242 167.894" stroke="#535461" stroke-width="2" stroke-miterlimit="10"/>
<path opacity="0.5" d="M291.366 159.334C292.051 161.291 290.242 168.119 290.242 168.119C290.242 168.119 284.45 163.604 283.765 161.651C283.436 160.712 283.52 159.689 284 158.808C284.48 157.927 285.316 157.26 286.324 156.953C287.332 156.646 288.43 156.725 289.375 157.172C290.321 157.619 291.037 158.398 291.366 159.337V159.334Z" fill="#0092B2"/>
<path opacity="0.5" d="M301.45 168.255C300.886 170.238 295.381 175.06 295.381 175.06C295.381 175.06 293.153 168.337 293.717 166.348C293.989 165.392 294.657 164.576 295.573 164.079C296.49 163.583 297.582 163.446 298.607 163.699C299.633 163.951 300.508 164.574 301.041 165.428C301.574 166.282 301.721 167.299 301.45 168.255Z" fill="#0092B2"/>
<path opacity="0.5" d="M307.672 186.849C306.108 188.3 298.748 189.87 298.748 189.87C298.748 189.87 300.465 183.019 302.033 181.568C302.405 181.223 302.847 180.949 303.333 180.764C303.819 180.578 304.34 180.483 304.865 180.484C305.39 180.486 305.91 180.584 306.395 180.773C306.88 180.961 307.32 181.237 307.69 181.584C308.06 181.932 308.354 182.343 308.553 182.796C308.753 183.249 308.855 183.734 308.853 184.224C308.851 184.713 308.746 185.198 308.544 185.649C308.341 186.101 308.045 186.511 307.672 186.856V186.849Z" fill="#0092B2"/>
<path opacity="0.5" d="M308.98 201.911C307.7 203.587 300.716 206.287 300.716 206.287C300.716 206.287 301.166 199.263 302.447 197.588C302.751 197.189 303.136 196.85 303.581 196.59C304.026 196.33 304.522 196.154 305.039 196.072C305.557 195.99 306.087 196.005 306.599 196.114C307.111 196.223 307.595 196.425 308.023 196.709C308.451 196.992 308.815 197.351 309.094 197.766C309.373 198.18 309.562 198.642 309.649 199.124C309.737 199.607 309.722 200.101 309.604 200.578C309.487 201.055 309.27 201.505 308.966 201.904L308.98 201.911Z" fill="#0092B2"/>
<path opacity="0.5" d="M287.536 177.863C289.519 178.768 297.028 178.041 297.028 178.041C297.028 178.041 293.03 172.072 291.047 171.17C290.095 170.736 288.996 170.672 287.994 170.993C286.991 171.314 286.166 171.993 285.7 172.88C285.234 173.768 285.166 174.791 285.511 175.726C285.855 176.66 286.583 177.429 287.536 177.863Z" fill="#0092B2"/>
<path opacity="0.5" d="M289.306 195.463C291.491 195.773 298.422 192.987 298.422 192.987C298.422 192.987 292.689 188.406 290.508 188.109C289.46 187.96 288.391 188.206 287.537 188.791C286.683 189.377 286.113 190.255 285.954 191.232C285.794 192.209 286.058 193.205 286.686 194.001C287.315 194.797 288.257 195.327 289.306 195.476V195.463Z" fill="#0092B2"/>
<path opacity="0.5" d="M293.54 212.342C295.636 213.003 302.975 211.35 302.975 211.35C302.975 211.35 298.158 205.933 296.062 205.282C295.055 204.971 293.957 205.044 293.009 205.487C292.061 205.93 291.34 206.706 291.006 207.644C290.671 208.582 290.75 209.605 291.226 210.489C291.701 211.372 292.534 212.044 293.54 212.355V212.342Z" fill="#0092B2"/>
<path opacity="0.5" d="M291.366 159.334C292.051 161.291 290.242 168.119 290.242 168.119C290.242 168.119 284.45 163.604 283.765 161.651C283.436 160.712 283.52 159.689 284 158.808C284.48 157.927 285.316 157.26 286.324 156.953C287.332 156.646 288.43 156.725 289.375 157.172C290.321 157.619 291.037 158.398 291.366 159.337V159.334Z" fill="white"/>
<path opacity="0.5" d="M301.45 168.255C300.886 170.238 295.381 175.06 295.381 175.06C295.381 175.06 293.153 168.337 293.717 166.348C293.989 165.392 294.657 164.576 295.573 164.079C296.49 163.583 297.582 163.446 298.607 163.699C299.633 163.951 300.508 164.574 301.041 165.428C301.574 166.282 301.721 167.299 301.45 168.255Z" fill="white"/>
<path opacity="0.5" d="M307.672 186.849C306.108 188.3 298.748 189.87 298.748 189.87C298.748 189.87 300.465 183.019 302.033 181.568C302.405 181.223 302.847 180.949 303.333 180.764C303.819 180.578 304.34 180.483 304.865 180.484C305.39 180.486 305.91 180.584 306.395 180.773C306.88 180.961 307.32 181.237 307.69 181.584C308.06 181.932 308.354 182.343 308.553 182.796C308.753 183.249 308.855 183.734 308.853 184.224C308.851 184.713 308.746 185.198 308.544 185.649C308.341 186.101 308.045 186.511 307.672 186.856V186.849Z" fill="white"/>
<path opacity="0.5" d="M308.98 201.911C307.7 203.587 300.716 206.287 300.716 206.287C300.716 206.287 301.166 199.263 302.447 197.588C302.751 197.189 303.136 196.85 303.581 196.59C304.026 196.33 304.522 196.154 305.039 196.072C305.557 195.99 306.087 196.005 306.599 196.114C307.111 196.223 307.595 196.425 308.023 196.709C308.451 196.992 308.815 197.351 309.094 197.766C309.373 198.18 309.562 198.642 309.649 199.124C309.737 199.607 309.722 200.101 309.604 200.578C309.487 201.055 309.27 201.505 308.966 201.904L308.98 201.911Z" fill="white"/>
<path opacity="0.5" d="M287.536 177.863C289.519 178.768 297.028 178.041 297.028 178.041C297.028 178.041 293.03 172.072 291.047 171.17C290.095 170.736 288.996 170.672 287.994 170.993C286.991 171.314 286.166 171.993 285.7 172.88C285.234 173.768 285.166 174.791 285.511 175.726C285.855 176.66 286.583 177.429 287.536 177.863Z" fill="white"/>
<path opacity="0.5" d="M289.306 195.463C291.491 195.773 298.422 192.987 298.422 192.987C298.422 192.987 292.689 188.406 290.508 188.109C289.46 187.96 288.391 188.206 287.537 188.791C286.683 189.377 286.113 190.255 285.954 191.232C285.794 192.209 286.058 193.205 286.686 194.001C287.315 194.797 288.257 195.327 289.306 195.476V195.463Z" fill="white"/>
<path opacity="0.5" d="M293.54 212.342C295.636 213.003 302.975 211.35 302.975 211.35C302.975 211.35 298.158 205.933 296.062 205.282C295.055 204.971 293.957 205.044 293.009 205.487C292.061 205.93 291.34 206.706 291.006 207.644C290.671 208.582 290.75 209.605 291.226 210.489C291.701 211.372 292.534 212.044 293.54 212.355V212.342Z" fill="white"/>
<path opacity="0.5" d="M287.699 258.168H317.965L325.535 215.158H280.133L287.699 258.168Z" fill="#474059"/>
<path opacity="0.1" d="M285.925 215.158L292.994 255.348H318.462L317.965 258.168H287.699L280.133 215.158H285.925Z" fill="black"/>
</g>
<path d="M293.438 12.986H71.3945V262.623H293.438V12.986Z" fill="url(#paint0_linear)"/>
<path d="M290.601 16.1786H74.2324V259.437H290.601V16.1786Z" fill="white"/>
<path d="M245.554 43.6113H158.297V47.5775H245.554V43.6113Z" fill="#C0BCCF"/>
<path d="M245.554 56.1708H158.297V60.1369H245.554V56.1708Z" fill="#C0BCCF"/>
<path d="M224.626 68.7303H179.224V72.6965H224.626V68.7303Z" fill="#B22000"/>
<path opacity="0.5" d="M245.554 123.265H158.297V127.231H245.554V123.265Z" fill="#C0BCCF"/>
<path opacity="0.5" d="M245.554 135.825H158.297V139.791H245.554V135.825Z" fill="#C0BCCF"/>
<path opacity="0.5" d="M224.626 148.384H179.224V152.35H224.626V148.384Z" fill="#B22000"/>
<path opacity="0.5" d="M245.554 202.919H158.297V206.885H245.554V202.919Z" fill="#B22000"/>
<path opacity="0.5" d="M245.554 215.479H158.297V219.445H245.554V215.479Z" fill="#C0BCCF"/>
<path opacity="0.5" d="M224.626 228.038H179.224V232.004H224.626V228.038Z" fill="#B22000"/>
<g opacity="0.5">
<path opacity="0.5" d="M127.576 145.386L125.746 144.62C125.774 144.36 125.786 144.1 125.781 143.84C125.794 143.619 125.794 143.399 125.781 143.179C125.6 141.44 124.412 139.926 123.571 138.337C122.802 136.885 122.313 135.319 122.128 133.709C121.904 131.726 122.128 129.67 121.347 127.806C120.713 126.303 119.457 125.047 118.113 123.936C116.604 122.617 114.84 121.575 112.916 120.866C110.951 120.205 108.692 120.036 106.727 120.71C104.953 121.318 103.588 122.531 102.268 123.711C101.31 124.498 100.464 125.395 99.7496 126.382C98.9445 127.611 98.6004 129.026 98.3308 130.421C97.9073 132.654 97.616 134.907 97.4582 137.17C97.3199 139.057 97.1035 141.199 95.3726 142.356C94.5284 142.921 93.3402 143.238 92.9535 144.094C92.844 144.351 92.8003 144.628 92.8258 144.904C92.8152 145.133 92.8331 145.363 92.879 145.588C92.9039 145.72 92.9322 145.849 92.9677 145.981C92.4709 147.132 92.0539 148.311 91.7192 149.511C91.4602 150.404 91.2226 151.279 91.0098 152.129H91.5844H91.8894L95.1952 152.202H95.2414L98.7884 152.278H98.8061L102.112 152.35H102.194L103.148 152.413H103.46L116.68 152.697H116.751L117.63 152.717H117.939L120.585 152.773L124.487 152.856H124.515L127.452 152.922H127.764H128.367L128.211 150.053C128.856 145.661 127.576 145.386 127.576 145.386ZM112.725 145.036C112.725 147.469 109.93 150.447 109.93 150.447L107.117 146.877L107.22 146.738L109.93 150.176C109.93 150.176 112.725 147.201 112.725 144.765C112.79 144.641 112.864 144.522 112.948 144.408L113.012 144.593C112.905 144.734 112.809 144.882 112.725 145.036ZM117.024 154.581C117.024 154.459 117.024 154.333 116.999 154.211C116.974 154.089 116.978 153.98 116.96 153.861C116.942 153.742 116.928 153.626 116.91 153.507C116.892 153.388 116.868 153.272 116.843 153.153C116.818 153.034 116.793 152.919 116.765 152.8C116.765 152.76 116.747 152.724 116.736 152.681C116.697 152.526 116.655 152.37 116.609 152.215C116.563 152.059 116.534 151.964 116.492 151.841C116.492 151.785 116.456 151.729 116.435 151.676C116.414 151.623 116.375 151.498 116.343 151.408L116.279 151.237C116.25 151.16 116.222 151.081 116.19 151.005C116.137 150.866 116.08 150.731 116.023 150.592C115.967 150.453 115.906 150.318 115.846 150.182C115.725 149.905 115.594 149.63 115.463 149.353C114.949 148.282 114.37 147.227 113.838 146.183C113.553 145.636 113.3 145.076 113.079 144.504L113.012 144.587C112.904 144.728 112.808 144.878 112.725 145.033C112.725 147.465 109.93 150.443 109.93 150.443L107.117 146.874L104.655 150.179C104.3 150.344 103.946 150.906 103.669 151.706C103.591 151.921 103.517 152.159 103.446 152.407C103.396 152.575 103.35 152.737 103.307 152.925C103.282 153.015 103.261 153.104 103.24 153.196L103.176 153.477V153.52C103.133 153.712 103.091 153.91 103.052 154.112C103.013 154.314 102.967 154.545 102.928 154.773C102.899 154.916 102.875 155.058 102.853 155.199C102.804 155.474 102.761 155.751 102.718 156.029C102.694 156.191 102.669 156.359 102.648 156.508L102.562 157.123C102.743 157.629 102.945 158.114 103.155 158.623C103.288 158.891 103.366 159.179 103.385 159.473C107.749 160.557 112.341 160.557 116.704 159.473C116.703 159.463 116.703 159.453 116.704 159.443C116.639 159.167 116.61 158.883 116.619 158.6C116.691 157.806 116.809 157.016 116.974 156.234C117.026 155.848 117.049 155.459 117.041 155.07V154.932C117.031 154.806 117.027 154.694 117.024 154.585V154.581ZM117.024 154.581C117.024 154.459 117.024 154.333 116.999 154.211C116.974 154.089 116.978 153.98 116.96 153.861C116.942 153.742 116.928 153.626 116.91 153.507C116.892 153.388 116.868 153.272 116.843 153.153C116.818 153.034 116.793 152.919 116.765 152.8C116.765 152.76 116.747 152.724 116.736 152.681C116.697 152.526 116.655 152.37 116.609 152.215C116.563 152.059 116.534 151.964 116.492 151.841C116.492 151.785 116.456 151.729 116.435 151.676C116.414 151.623 116.375 151.498 116.343 151.408L116.279 151.237C116.25 151.16 116.222 151.081 116.19 151.005C116.137 150.866 116.08 150.731 116.023 150.592C115.967 150.453 115.906 150.318 115.846 150.182C115.725 149.905 115.594 149.63 115.463 149.353C114.949 148.282 114.37 147.227 113.838 146.183C113.553 145.636 113.3 145.076 113.079 144.504L113.012 144.587C112.904 144.728 112.808 144.878 112.725 145.033C112.725 147.465 109.93 150.443 109.93 150.443L107.117 146.874L104.655 150.179C104.3 150.344 103.946 150.906 103.669 151.706C103.591 151.921 103.517 152.159 103.446 152.407C103.396 152.575 103.35 152.737 103.307 152.925C103.282 153.015 103.261 153.104 103.24 153.196L103.176 153.477V153.52C103.133 153.712 103.091 153.91 103.052 154.112C103.013 154.314 102.967 154.545 102.928 154.773C102.899 154.916 102.875 155.058 102.853 155.199C102.804 155.474 102.761 155.751 102.718 156.029C102.694 156.191 102.669 156.359 102.648 156.508L102.562 157.123C102.743 157.629 102.945 158.114 103.155 158.623C103.288 158.891 103.366 159.179 103.385 159.473C107.749 160.557 112.341 160.557 116.704 159.473C116.703 159.463 116.703 159.453 116.704 159.443C116.639 159.167 116.61 158.883 116.619 158.6C116.691 157.806 116.809 157.016 116.974 156.234C117.026 155.848 117.049 155.459 117.041 155.07V154.932C117.031 154.806 117.027 154.694 117.024 154.585V154.581ZM117.024 154.581C117.024 154.459 117.024 154.333 116.999 154.211C116.974 154.089 116.978 153.98 116.96 153.861C116.942 153.742 116.928 153.626 116.91 153.507C116.892 153.388 116.868 153.272 116.843 153.153C116.818 153.034 116.793 152.919 116.765 152.8C116.765 152.76 116.747 152.724 116.736 152.681C116.697 152.526 116.655 152.37 116.609 152.215C116.563 152.059 116.534 151.964 116.492 151.841C116.492 151.785 116.456 151.729 116.435 151.676C116.414 151.623 116.375 151.498 116.343 151.408L116.279 151.237C116.25 151.16 116.222 151.081 116.19 151.005C116.137 150.866 116.08 150.731 116.023 150.592C115.967 150.453 115.906 150.318 115.846 150.182C115.725 149.905 115.594 149.63 115.463 149.353C114.949 148.282 114.37 147.227 113.838 146.183C113.553 145.636 113.3 145.076 113.079 144.504L113.012 144.587C112.904 144.728 112.808 144.878 112.725 145.033C112.725 147.465 109.93 150.443 109.93 150.443L107.117 146.874L104.655 150.179C104.3 150.344 103.946 150.906 103.669 151.706C103.591 151.921 103.517 152.159 103.446 152.407C103.396 152.575 103.35 152.737 103.307 152.925C103.282 153.015 103.261 153.104 103.24 153.196L103.176 153.477V153.52C103.133 153.712 103.091 153.91 103.052 154.112C103.013 154.314 102.967 154.545 102.928 154.773C102.899 154.916 102.875 155.058 102.853 155.199C102.804 155.474 102.761 155.751 102.718 156.029C102.694 156.191 102.669 156.359 102.648 156.508L102.562 157.123C102.743 157.629 102.945 158.114 103.155 158.623C103.288 158.891 103.366 159.179 103.385 159.473C107.749 160.557 112.341 160.557 116.704 159.473C116.703 159.463 116.703 159.453 116.704 159.443C116.639 159.167 116.61 158.883 116.619 158.6C116.691 157.806 116.809 157.016 116.974 156.234C117.026 155.848 117.049 155.459 117.041 155.07V154.932C117.031 154.806 117.027 154.694 117.024 154.585V154.581ZM117.024 154.581C117.024 154.459 117.024 154.333 116.999 154.211C116.974 154.089 116.978 153.98 116.96 153.861C116.942 153.742 116.928 153.626 116.91 153.507C116.892 153.388 116.868 153.272 116.843 153.153C116.818 153.034 116.793 152.919 116.765 152.8C116.765 152.76 116.747 152.724 116.736 152.681C116.697 152.526 116.655 152.37 116.609 152.215C116.563 152.059 116.534 151.964 116.492 151.841C116.492 151.785 116.456 151.729 116.435 151.676C116.414 151.623 116.375 151.498 116.343 151.408L116.279 151.237C116.25 151.16 116.222 151.081 116.19 151.005C116.137 150.866 116.08 150.731 116.023 150.592C115.967 150.453 115.906 150.318 115.846 150.182C115.725 149.905 115.594 149.63 115.463 149.353C114.949 148.282 114.37 147.227 113.838 146.183C113.553 145.636 113.3 145.076 113.079 144.504L113.012 144.587C112.904 144.728 112.808 144.878 112.725 145.033C112.725 147.465 109.93 150.443 109.93 150.443L107.117 146.874L104.655 150.179C104.3 150.344 103.946 150.906 103.669 151.706C103.591 151.921 103.517 152.159 103.446 152.407C103.396 152.575 103.35 152.737 103.307 152.925C103.282 153.015 103.261 153.104 103.24 153.196L103.176 153.477V153.52C103.133 153.712 103.091 153.91 103.052 154.112C103.013 154.314 102.967 154.545 102.928 154.773C102.899 154.916 102.875 155.058 102.853 155.199C102.804 155.474 102.761 155.751 102.718 156.029C102.694 156.191 102.669 156.359 102.648 156.508L102.562 157.123C102.743 157.629 102.945 158.114 103.155 158.623C103.288 158.891 103.366 159.179 103.385 159.473C107.749 160.557 112.341 160.557 116.704 159.473C116.703 159.463 116.703 159.453 116.704 159.443C116.639 159.167 116.61 158.883 116.619 158.6C116.691 157.806 116.809 157.016 116.974 156.234C117.026 155.848 117.049 155.459 117.041 155.07V154.932C117.031 154.806 117.027 154.694 117.024 154.585V154.581Z" fill="url(#paint1_linear)"/>
<path opacity="0.5" d="M117.151 131.528H100.835V141.774H117.151V131.528Z" fill="#493545"/>
<path opacity="0.5" d="M119.861 142.828L113.033 151.792L105.897 151.213C105.897 151.213 96.5856 151.789 102.793 145.142C105.776 141.946 106.751 139.282 106.961 137.381C107.188 135.326 106.517 134.156 106.517 134.156L114.275 133.29C113.925 134.264 113.88 135.311 114.147 136.307C115.119 140.062 119.861 142.828 119.861 142.828Z" fill="#C77485"/>
<path opacity="0.1" d="M114.143 136.297C113.132 137.011 111.947 137.483 110.694 137.671C109.441 137.859 108.158 137.757 106.957 137.375C107.184 135.319 106.514 134.149 106.514 134.149L114.271 133.283C113.922 134.256 113.877 135.302 114.143 136.297Z" fill="black"/>
<path opacity="0.5" d="M109.465 137.474C113.75 137.474 117.223 134.238 117.223 130.246C117.223 126.253 113.75 123.017 109.465 123.017C105.181 123.017 101.708 126.253 101.708 130.246C101.708 134.238 105.181 137.474 109.465 137.474Z" fill="#C77485"/>
<path opacity="0.1" d="M119.577 143.198L119.396 142.537L119.24 141.956L119.01 141.096L118.967 140.938L118.932 140.806C118.932 140.806 119.116 140.287 117.899 140.455L117.672 140.492C117.481 140.528 117.257 140.577 117.002 140.644L116.771 140.71L116.466 140.799C115.501 141.092 114.62 141.587 113.891 142.247C113.564 142.538 113.275 142.864 113.029 143.218C113.005 143.251 112.987 143.281 112.966 143.308C112.882 143.43 112.807 143.558 112.742 143.691C112.742 146.295 109.947 149.475 109.947 149.475L107.219 145.803L107.166 145.73L106.517 144.851L106.286 144.567L106.208 144.468L104.79 142.693L104.435 142.25L104.318 142.101L104.144 141.886L103.736 141.381L102.14 142.25L100.012 143.407L98.7703 150.926V151.134L98.8093 151.755L99.0683 155.841V155.897L98.6143 157.589L98.6817 157.622C99.753 158.161 100.868 158.62 102.016 158.997L102.317 159.096C102.672 159.205 103.005 159.304 103.353 159.4C103.366 159.449 103.375 159.499 103.381 159.549C103.381 159.503 103.381 159.453 103.381 159.407C107.734 160.566 112.348 160.566 116.701 159.407L116.782 159.384C116.984 159.331 117.19 159.275 117.389 159.212L117.711 159.116C118.587 158.843 119.444 158.523 120.279 158.158L120.577 152.241L120.79 147.974V147.73L119.577 143.198Z" fill="black"/>
<path opacity="0.5" d="M117.023 154.188C117.023 154.056 117.023 153.924 116.999 153.791C116.974 153.659 116.977 153.544 116.96 153.418C116.942 153.292 116.928 153.167 116.91 153.041C116.892 152.916 116.867 152.79 116.842 152.664C116.818 152.539 116.793 152.413 116.764 152.288C116.764 152.245 116.747 152.205 116.736 152.162C116.697 151.997 116.655 151.832 116.608 151.663C116.562 151.494 116.534 151.395 116.491 151.263C116.491 151.204 116.456 151.144 116.435 151.088C116.413 151.032 116.374 150.896 116.342 150.8L116.279 150.615C116.25 150.533 116.222 150.45 116.19 150.367C116.137 150.219 116.08 150.073 116.023 149.924C115.966 149.776 115.906 149.63 115.846 149.485C115.725 149.187 115.594 148.893 115.463 148.599C114.948 147.455 114.37 146.328 113.838 145.211C113.552 144.626 113.299 144.027 113.079 143.417L113.012 143.506C112.904 143.658 112.808 143.817 112.724 143.982C112.724 146.583 109.929 149.766 109.929 149.766L107.117 145.948L104.655 149.475C104.3 149.65 103.946 150.252 103.669 151.108C103.591 151.339 103.516 151.59 103.445 151.858C103.396 152.036 103.35 152.225 103.307 152.413C103.282 152.509 103.261 152.605 103.24 152.704L103.176 153.005V153.051C103.133 153.256 103.091 153.468 103.052 153.682C103.013 153.897 102.967 154.145 102.928 154.38C102.899 154.532 102.874 154.684 102.853 154.836C102.803 155.13 102.761 155.427 102.718 155.722C102.693 155.894 102.669 156.052 102.647 156.234L102.562 156.895C102.743 157.437 102.945 157.972 103.155 158.498C103.288 158.786 103.366 159.094 103.385 159.407C107.738 160.566 112.352 160.566 116.704 159.407C116.703 159.396 116.703 159.385 116.704 159.374C116.639 159.077 116.61 158.774 116.619 158.472C116.691 157.624 116.809 156.78 116.974 155.943C117.026 155.531 117.049 155.116 117.041 154.7V154.552C117.03 154.426 117.027 154.307 117.023 154.188ZM117.023 154.188C117.023 154.056 117.023 153.924 116.999 153.791C116.974 153.659 116.977 153.544 116.96 153.418C116.942 153.292 116.928 153.167 116.91 153.041C116.892 152.916 116.867 152.79 116.842 152.664C116.818 152.539 116.793 152.413 116.764 152.288C116.764 152.245 116.747 152.205 116.736 152.162C116.697 151.997 116.655 151.832 116.608 151.663C116.562 151.494 116.534 151.395 116.491 151.263C116.491 151.204 116.456 151.144 116.435 151.088C116.413 151.032 116.374 150.896 116.342 150.8L116.279 150.615C116.25 150.533 116.222 150.45 116.19 150.367C116.137 150.219 116.08 150.073 116.023 149.924C115.966 149.776 115.906 149.63 115.846 149.485C115.725 149.187 115.594 148.893 115.463 148.599C114.948 147.455 114.37 146.328 113.838 145.211C113.552 144.626 113.299 144.027 113.079 143.417L113.012 143.506C112.904 143.658 112.808 143.817 112.724 143.982C112.724 146.583 109.929 149.766 109.929 149.766L107.117 145.948L104.655 149.475C104.3 149.65 103.946 150.252 103.669 151.108C103.591 151.339 103.516 151.59 103.445 151.858C103.396 152.036 103.35 152.225 103.307 152.413C103.282 152.509 103.261 152.605 103.24 152.704L103.176 153.005V153.051C103.133 153.256 103.091 153.468 103.052 153.682C103.013 153.897 102.967 154.145 102.928 154.38C102.899 154.532 102.874 154.684 102.853 154.836C102.803 155.13 102.761 155.427 102.718 155.722C102.693 155.894 102.669 156.052 102.647 156.234L102.562 156.895C102.743 157.437 102.945 157.972 103.155 158.498C103.288 158.786 103.366 159.094 103.385 159.407C107.738 160.566 112.352 160.566 116.704 159.407C116.703 159.396 116.703 159.385 116.704 159.374C116.639 159.077 116.61 158.774 116.619 158.472C116.691 157.624 116.809 156.78 116.974 155.943C117.026 155.531 117.049 155.116 117.041 154.7V154.552C117.03 154.426 117.027 154.307 117.023 154.188ZM117.023 154.188C117.023 154.056 117.023 153.924 116.999 153.791C116.974 153.659 116.977 153.544 116.96 153.418C116.942 153.292 116.928 153.167 116.91 153.041C116.892 152.916 116.867 152.79 116.842 152.664C116.818 152.539 116.793 152.413 116.764 152.288C116.764 152.245 116.747 152.205 116.736 152.162C116.697 151.997 116.655 151.832 116.608 151.663C116.562 151.494 116.534 151.395 116.491 151.263C116.491 151.204 116.456 151.144 116.435 151.088C116.413 151.032 116.374 150.896 116.342 150.8L116.279 150.615C116.25 150.533 116.222 150.45 116.19 150.367C116.137 150.219 116.08 150.073 116.023 149.924C115.966 149.776 115.906 149.63 115.846 149.485C115.725 149.187 115.594 148.893 115.463 148.599C114.948 147.455 114.37 146.328 113.838 145.211C113.552 144.626 113.299 144.027 113.079 143.417L113.012 143.506C112.904 143.658 112.808 143.817 112.724 143.982C112.724 146.583 109.929 149.766 109.929 149.766L107.117 145.948L104.655 149.475C104.3 149.65 103.946 150.252 103.669 151.108C103.591 151.339 103.516 151.59 103.445 151.858C103.396 152.036 103.35 152.225 103.307 152.413C103.282 152.509 103.261 152.605 103.24 152.704L103.176 153.005V153.051C103.133 153.256 103.091 153.468 103.052 153.682C103.013 153.897 102.967 154.145 102.928 154.38C102.899 154.532 102.874 154.684 102.853 154.836C102.803 155.13 102.761 155.427 102.718 155.722C102.693 155.894 102.669 156.052 102.647 156.234L102.562 156.895C102.743 157.437 102.945 157.972 103.155 158.498C103.288 158.786 103.366 159.094 103.385 159.407C107.738 160.566 112.352 160.566 116.704 159.407C116.703 159.396 116.703 159.385 116.704 159.374C116.639 159.077 116.61 158.774 116.619 158.472C116.691 157.624 116.809 156.78 116.974 155.943C117.026 155.531 117.049 155.116 117.041 154.7V154.552C117.03 154.426 117.027 154.307 117.023 154.188ZM120.783 147.984L119.517 143.275L119.301 142.468L119.24 142.247L118.932 141.096C118.932 141.087 118.932 141.077 118.932 141.067C118.939 141.016 118.93 140.964 118.907 140.918C118.861 140.832 118.744 140.743 118.471 140.72C118.367 140.713 118.262 140.713 118.158 140.72C117.85 140.748 117.545 140.801 117.247 140.878C117.101 140.915 116.945 140.954 116.779 141.004L116.474 141.093H116.445C115.628 141.343 114.87 141.736 114.211 142.25C113.775 142.588 113.393 142.982 113.076 143.42L113.008 143.509C112.9 143.661 112.804 143.82 112.721 143.985C112.721 146.586 109.926 149.769 109.926 149.769L107.113 145.952L106.953 145.737L106.925 145.7L106.517 145.142L106.209 144.759L106.127 144.659L104.673 142.851L104.212 142.266V142.247L104.052 142.045L103.747 141.668L102.683 142.247L100.023 143.691L98.7952 151.131V151.21L98.8307 151.752L99.0932 155.894V156.128L98.6924 157.619C99.7637 158.157 100.878 158.617 102.027 158.994L102.328 159.093C102.683 159.202 103.016 159.301 103.364 159.397C103.377 159.446 103.386 159.496 103.392 159.546C103.392 159.499 103.392 159.45 103.392 159.404C107.745 160.563 112.359 160.563 116.711 159.404L116.793 159.38C116.995 159.328 117.201 159.271 117.399 159.209L117.722 159.113C118.597 158.84 119.455 158.52 120.29 158.154L120.585 152.245L120.797 148.024L120.783 147.984ZM103.339 159.397C103.352 159.446 103.361 159.496 103.367 159.546C103.367 159.499 103.367 159.45 103.367 159.404L103.339 159.397ZM117.023 154.188C117.023 154.056 117.023 153.924 116.999 153.791C116.974 153.659 116.977 153.544 116.96 153.418C116.942 153.292 116.928 153.167 116.91 153.041C116.892 152.916 116.867 152.79 116.842 152.664C116.818 152.539 116.793 152.413 116.764 152.288C116.764 152.245 116.747 152.205 116.736 152.162C116.697 151.997 116.655 151.832 116.608 151.663C116.562 151.494 116.534 151.395 116.491 151.263C116.491 151.204 116.456 151.144 116.435 151.088C116.413 151.032 116.374 150.896 116.342 150.8L116.279 150.615C116.25 150.533 116.222 150.45 116.19 150.367C116.137 150.219 116.08 150.073 116.023 149.924C115.966 149.776 115.906 149.63 115.846 149.485C115.725 149.187 115.594 148.893 115.463 148.599C114.948 147.455 114.37 146.328 113.838 145.211C113.552 144.626 113.299 144.027 113.079 143.417L113.012 143.506C112.904 143.658 112.808 143.817 112.724 143.982C112.724 146.583 109.929 149.766 109.929 149.766L107.117 145.948L104.655 149.475C104.3 149.65 103.946 150.252 103.669 151.108C103.591 151.339 103.516 151.59 103.445 151.858C103.396 152.036 103.35 152.225 103.307 152.413C103.282 152.509 103.261 152.605 103.24 152.704L103.176 153.005V153.051C103.133 153.256 103.091 153.468 103.052 153.682C103.013 153.897 102.967 154.145 102.928 154.38C102.899 154.532 102.874 154.684 102.853 154.836C102.803 155.13 102.761 155.427 102.718 155.722C102.693 155.894 102.669 156.052 102.647 156.234L102.562 156.895C102.743 157.437 102.945 157.972 103.155 158.498C103.288 158.786 103.366 159.094 103.385 159.407C107.738 160.566 112.352 160.566 116.704 159.407C116.703 159.396 116.703 159.385 116.704 159.374C116.639 159.077 116.61 158.774 116.619 158.472C116.691 157.624 116.809 156.78 116.974 155.943C117.026 155.531 117.049 155.116 117.041 154.7V154.552C117.03 154.426 117.027 154.307 117.023 154.188ZM117.023 154.188C117.023 154.056 117.023 153.924 116.999 153.791C116.974 153.659 116.977 153.544 116.96 153.418C116.942 153.292 116.928 153.167 116.91 153.041C116.892 152.916 116.867 152.79 116.842 152.664C116.818 152.539 116.793 152.413 116.764 152.288C116.764 152.245 116.747 152.205 116.736 152.162C116.697 151.997 116.655 151.832 116.608 151.663C116.562 151.494 116.534 151.395 116.491 151.263C116.491 151.204 116.456 151.144 116.435 151.088C116.413 151.032 116.374 150.896 116.342 150.8L116.279 150.615C116.25 150.533 116.222 150.45 116.19 150.367C116.137 150.219 116.08 150.073 116.023 149.924C115.966 149.776 115.906 149.63 115.846 149.485C115.725 149.187 115.594 148.893 115.463 148.599C114.948 147.455 114.37 146.328 113.838 145.211C113.552 144.626 113.299 144.027 113.079 143.417L113.012 143.506C112.904 143.658 112.808 143.817 112.724 143.982C112.724 146.583 109.929 149.766 109.929 149.766L107.117 145.948L104.655 149.475C104.3 149.65 103.946 150.252 103.669 151.108C103.591 151.339 103.516 151.59 103.445 151.858C103.396 152.036 103.35 152.225 103.307 152.413C103.282 152.509 103.261 152.605 103.24 152.704L103.176 153.005V153.051C103.133 153.256 103.091 153.468 103.052 153.682C103.013 153.897 102.967 154.145 102.928 154.38C102.899 154.532 102.874 154.684 102.853 154.836C102.803 155.13 102.761 155.427 102.718 155.722C102.693 155.894 102.669 156.052 102.647 156.234L102.562 156.895C102.743 157.437 102.945 157.972 103.155 158.498C103.288 158.786 103.366 159.094 103.385 159.407C107.738 160.566 112.352 160.566 116.704 159.407C116.703 159.396 116.703 159.385 116.704 159.374C116.639 159.077 116.61 158.774 116.619 158.472C116.691 157.624 116.809 156.78 116.974 155.943C117.026 155.531 117.049 155.116 117.041 154.7V154.552C117.03 154.426 117.027 154.307 117.023 154.188ZM117.023 154.188C117.023 154.056 117.023 153.924 116.999 153.791C116.974 153.659 116.977 153.544 116.96 153.418C116.942 153.292 116.928 153.167 116.91 153.041C116.892 152.916 116.867 152.79 116.842 152.664C116.818 152.539 116.793 152.413 116.764 152.288C116.764 152.245 116.747 152.205 116.736 152.162C116.697 151.997 116.655 151.832 116.608 151.663C116.562 151.494 116.534 151.395 116.491 151.263C116.491 151.204 116.456 151.144 116.435 151.088C116.413 151.032 116.374 150.896 116.342 150.8L116.279 150.615C116.25 150.533 116.222 150.45 116.19 150.367C116.137 150.219 116.08 150.073 116.023 149.924C115.966 149.776 115.906 149.63 115.846 149.485C115.725 149.187 115.594 148.893 115.463 148.599C114.948 147.455 114.37 146.328 113.838 145.211C113.552 144.626 113.299 144.027 113.079 143.417L113.012 143.506C112.904 143.658 112.808 143.817 112.724 143.982C112.724 146.583 109.929 149.766 109.929 149.766L107.117 145.948L104.655 149.475C104.3 149.65 103.946 150.252 103.669 151.108C103.591 151.339 103.516 151.59 103.445 151.858C103.396 152.036 103.35 152.225 103.307 152.413C103.282 152.509 103.261 152.605 103.24 152.704L103.176 153.005V153.051C103.133 153.256 103.091 153.468 103.052 153.682C103.013 153.897 102.967 154.145 102.928 154.38C102.899 154.532 102.874 154.684 102.853 154.836C102.803 155.13 102.761 155.427 102.718 155.722C102.693 155.894 102.669 156.052 102.647 156.234L102.562 156.895C102.743 157.437 102.945 157.972 103.155 158.498C103.288 158.786 103.366 159.094 103.385 159.407C107.738 160.566 112.352 160.566 116.704 159.407C116.703 159.396 116.703 159.385 116.704 159.374C116.639 159.077 116.61 158.774 116.619 158.472C116.691 157.624 116.809 156.78 116.974 155.943C117.026 155.531 117.049 155.116 117.041 154.7V154.552C117.03 154.426 117.027 154.307 117.023 154.188ZM117.023 154.188C117.023 154.056 117.023 153.924 116.999 153.791C116.974 153.659 116.977 153.544 116.96 153.418C116.942 153.292 116.928 153.167 116.91 153.041C116.892 152.916 116.867 152.79 116.842 152.664C116.818 152.539 116.793 152.413 116.764 152.288C116.764 152.245 116.747 152.205 116.736 152.162C116.697 151.997 116.655 151.832 116.608 151.663C116.562 151.494 116.534 151.395 116.491 151.263C116.491 151.204 116.456 151.144 116.435 151.088C116.413 151.032 116.374 150.896 116.342 150.8L116.279 150.615C116.25 150.533 116.222 150.45 116.19 150.367C116.137 150.219 116.08 150.073 116.023 149.924C115.966 149.776 115.906 149.63 115.846 149.485C115.725 149.187 115.594 148.893 115.463 148.599C114.948 147.455 114.37 146.328 113.838 145.211C113.552 144.626 113.299 144.027 113.079 143.417L113.012 143.506C112.904 143.658 112.808 143.817 112.724 143.982C112.724 146.583 109.929 149.766 109.929 149.766L107.117 145.948L104.655 149.475C104.3 149.65 103.946 150.252 103.669 151.108C103.591 151.339 103.516 151.59 103.445 151.858C103.396 152.036 103.35 152.225 103.307 152.413C103.282 152.509 103.261 152.605 103.24 152.704L103.176 153.005V153.051C103.133 153.256 103.091 153.468 103.052 153.682C103.013 153.897 102.967 154.145 102.928 154.38C102.899 154.532 102.874 154.684 102.853 154.836C102.803 155.13 102.761 155.427 102.718 155.722C102.693 155.894 102.669 156.052 102.647 156.234L102.562 156.895C102.743 157.437 102.945 157.972 103.155 158.498C103.288 158.786 103.366 159.094 103.385 159.407C107.738 160.566 112.352 160.566 116.704 159.407C116.703 159.396 116.703 159.385 116.704 159.374C116.639 159.077 116.61 158.774 116.619 158.472C116.691 157.624 116.809 156.78 116.974 155.943C117.026 155.531 117.049 155.116 117.041 154.7V154.552C117.03 154.426 117.027 154.307 117.023 154.188ZM117.023 154.188C117.023 154.056 117.023 153.924 116.999 153.791C116.974 153.659 116.977 153.544 116.96 153.418C116.942 153.292 116.928 153.167 116.91 153.041C116.892 152.916 116.867 152.79 116.842 152.664C116.818 152.539 116.793 152.413 116.764 152.288C116.764 152.245 116.747 152.205 116.736 152.162C116.697 151.997 116.655 151.832 116.608 151.663C116.562 151.494 116.534 151.395 116.491 151.263C116.491 151.204 116.456 151.144 116.435 151.088C116.413 151.032 116.374 150.896 116.342 150.8L116.279 150.615C116.25 150.533 116.222 150.45 116.19 150.367C116.137 150.219 116.08 150.073 116.023 149.924C115.966 149.776 115.906 149.63 115.846 149.485C115.725 149.187 115.594 148.893 115.463 148.599C114.948 147.455 114.37 146.328 113.838 145.211C113.552 144.626 113.299 144.027 113.079 143.417L113.012 143.506C112.904 143.658 112.808 143.817 112.724 143.982C112.724 146.583 109.929 149.766 109.929 149.766L107.117 145.948L104.655 149.475C104.3 149.65 103.946 150.252 103.669 151.108C103.591 151.339 103.516 151.59 103.445 151.858C103.396 152.036 103.35 152.225 103.307 152.413C103.282 152.509 103.261 152.605 103.24 152.704L103.176 153.005V153.051C103.133 153.256 103.091 153.468 103.052 153.682C103.013 153.897 102.967 154.145 102.928 154.38C102.899 154.532 102.874 154.684 102.853 154.836C102.803 155.13 102.761 155.427 102.718 155.722C102.693 155.894 102.669 156.052 102.647 156.234L102.562 156.895C102.743 157.437 102.945 157.972 103.155 158.498C103.288 158.786 103.366 159.094 103.385 159.407C107.738 160.566 112.352 160.566 116.704 159.407C116.703 159.396 116.703 159.385 116.704 159.374C116.639 159.077 116.61 158.774 116.619 158.472C116.691 157.624 116.809 156.78 116.974 155.943C117.026 155.531 117.049 155.116 117.041 154.7V154.552C117.03 154.426 117.027 154.307 117.023 154.188ZM117.023 154.188C117.023 154.056 117.023 153.924 116.999 153.791C116.974 153.659 116.977 153.544 116.96 153.418C116.942 153.292 116.928 153.167 116.91 153.041C116.892 152.916 116.867 152.79 116.842 152.664C116.818 152.539 116.793 152.413 116.764 152.288C116.764 152.245 116.747 152.205 116.736 152.162C116.697 151.997 116.655 151.832 116.608 151.663C116.562 151.494 116.534 151.395 116.491 151.263C116.491 151.204 116.456 151.144 116.435 151.088C116.413 151.032 116.374 150.896 116.342 150.8L116.279 150.615C116.25 150.533 116.222 150.45 116.19 150.367C116.137 150.219 116.08 150.073 116.023 149.924C115.966 149.776 115.906 149.63 115.846 149.485C115.725 149.187 115.594 148.893 115.463 148.599C114.948 147.455 114.37 146.328 113.838 145.211C113.552 144.626 113.299 144.027 113.079 143.417L113.012 143.506C112.904 143.658 112.808 143.817 112.724 143.982C112.724 146.583 109.929 149.766 109.929 149.766L107.117 145.948L104.655 149.475C104.3 149.65 103.946 150.252 103.669 151.108C103.591 151.339 103.516 151.59 103.445 151.858C103.396 152.036 103.35 152.225 103.307 152.413C103.282 152.509 103.261 152.605 103.24 152.704L103.176 153.005V153.051C103.133 153.256 103.091 153.468 103.052 153.682C103.013 153.897 102.967 154.145 102.928 154.38C102.899 154.532 102.874 154.684 102.853 154.836C102.803 155.13 102.761 155.427 102.718 155.722C102.693 155.894 102.669 156.052 102.647 156.234L102.562 156.895C102.743 157.437 102.945 157.972 103.155 158.498C103.288 158.786 103.366 159.094 103.385 159.407C107.738 160.566 112.352 160.566 116.704 159.407C116.703 159.396 116.703 159.385 116.704 159.374C116.639 159.077 116.61 158.774 116.619 158.472C116.691 157.624 116.809 156.78 116.974 155.943C117.026 155.531 117.049 155.116 117.041 154.7V154.552C117.03 154.426 117.027 154.307 117.023 154.188ZM117.023 154.188C117.023 154.056 117.023 153.924 116.999 153.791C116.974 153.659 116.977 153.544 116.96 153.418C116.942 153.292 116.928 153.167 116.91 153.041C116.892 152.916 116.867 152.79 116.842 152.664C116.818 152.539 116.793 152.413 116.764 152.288C116.764 152.245 116.747 152.205 116.736 152.162C116.697 151.997 116.655 151.832 116.608 151.663C116.562 151.494 116.534 151.395 116.491 151.263C116.491 151.204 116.456 151.144 116.435 151.088C116.413 151.032 116.374 150.896 116.342 150.8L116.279 150.615C116.25 150.533 116.222 150.45 116.19 150.367C116.137 150.219 116.08 150.073 116.023 149.924C115.966 149.776 115.906 149.63 115.846 149.485C115.725 149.187 115.594 148.893 115.463 148.599C114.948 147.455 114.37 146.328 113.838 145.211C113.552 144.626 113.299 144.027 113.079 143.417L113.012 143.506C112.904 143.658 112.808 143.817 112.724 143.982C112.724 146.583 109.929 149.766 109.929 149.766L107.117 145.948L104.655 149.475C104.3 149.65 103.946 150.252 103.669 151.108C103.591 151.339 103.516 151.59 103.445 151.858C103.396 152.036 103.35 152.225 103.307 152.413C103.282 152.509 103.261 152.605 103.24 152.704L103.176 153.005V153.051C103.133 153.256 103.091 153.468 103.052 153.682C103.013 153.897 102.967 154.145 102.928 154.38C102.899 154.532 102.874 154.684 102.853 154.836C102.803 155.13 102.761 155.427 102.718 155.722C102.693 155.894 102.669 156.052 102.647 156.234L102.562 156.895C102.743 157.437 102.945 157.972 103.155 158.498C103.288 158.786 103.366 159.094 103.385 159.407C107.738 160.566 112.352 160.566 116.704 159.407C116.703 159.396 116.703 159.385 116.704 159.374C116.639 159.077 116.61 158.774 116.619 158.472C116.691 157.624 116.809 156.78 116.974 155.943C117.026 155.531 117.049 155.116 117.041 154.7V154.552C117.03 154.426 117.027 154.307 117.023 154.188ZM117.023 154.188C117.023 154.056 117.023 153.924 116.999 153.791C116.974 153.659 116.977 153.544 116.96 153.418C116.942 153.292 116.928 153.167 116.91 153.041C116.892 152.916 116.867 152.79 116.842 152.664C116.818 152.539 116.793 152.413 116.764 152.288C116.764 152.245 116.747 152.205 116.736 152.162C116.697 151.997 116.655 151.832 116.608 151.663C116.562 151.494 116.534 151.395 116.491 151.263C116.491 151.204 116.456 151.144 116.435 151.088C116.413 151.032 116.374 150.896 116.342 150.8L116.279 150.615C116.25 150.533 116.222 150.45 116.19 150.367C116.137 150.219 116.08 150.073 116.023 149.924C115.966 149.776 115.906 149.63 115.846 149.485C115.725 149.187 115.594 148.893 115.463 148.599C114.948 147.455 114.37 146.328 113.838 145.211C113.552 144.626 113.299 144.027 113.079 143.417L113.012 143.506C112.904 143.658 112.808 143.817 112.724 143.982C112.724 146.583 109.929 149.766 109.929 149.766L107.117 145.948L104.655 149.475C104.3 149.65 103.946 150.252 103.669 151.108C103.591 151.339 103.516 151.59 103.445 151.858C103.396 152.036 103.35 152.225 103.307 152.413C103.282 152.509 103.261 152.605 103.24 152.704L103.176 153.005V153.051C103.133 153.256 103.091 153.468 103.052 153.682C103.013 153.897 102.967 154.145 102.928 154.38C102.899 154.532 102.874 154.684 102.853 154.836C102.803 155.13 102.761 155.427 102.718 155.722C102.693 155.894 102.669 156.052 102.647 156.234L102.562 156.895C102.743 157.437 102.945 157.972 103.155 158.498C103.288 158.786 103.366 159.094 103.385 159.407C107.738 160.566 112.352 160.566 116.704 159.407C116.703 159.396 116.703 159.385 116.704 159.374C116.639 159.077 116.61 158.774 116.619 158.472C116.691 157.624 116.809 156.78 116.974 155.943C117.026 155.531 117.049 155.116 117.041 154.7V154.552C117.03 154.426 117.027 154.307 117.023 154.188Z" fill="white"/>
<path opacity="0.1" d="M107.167 145.727L106.929 145.697C106.57 145.652 106.215 145.586 105.865 145.499L105.734 145.466C104.868 145.238 103.921 144.828 103.708 144.107C103.645 143.875 103.652 143.632 103.73 143.403C103.849 143.01 104.01 142.629 104.212 142.266V142.247C104.239 142.196 104.268 142.146 104.301 142.098C104.593 141.565 105.036 141.116 105.581 140.799L105.156 140.862L101.552 141.407L95.9653 142.247C95.9653 142.247 94.9722 142.062 93.6207 145.532C93.6207 145.575 93.5888 145.615 93.5746 145.661C93.2483 146.51 92.9042 147.571 92.5495 148.897C92.3048 149.815 92.0813 150.718 91.8756 151.594C91.8153 151.858 91.755 152.119 91.6982 152.377C92.3378 153.079 93.0262 153.742 93.7591 154.36L93.8761 154.462C95.3116 155.674 96.8978 156.72 98.6007 157.579L98.6681 157.612C99.7395 158.151 100.854 158.61 102.002 158.987L102.304 159.086C102.368 158.475 102.439 157.797 102.524 157.103C102.524 157.034 102.524 156.964 102.552 156.895L102.637 156.234C102.659 156.065 102.683 155.903 102.708 155.722C102.751 155.428 102.793 155.13 102.843 154.836C102.864 154.684 102.889 154.532 102.917 154.38C102.956 154.145 102.999 153.91 103.042 153.682C103.084 153.454 103.123 153.256 103.166 153.051V153.005L103.23 152.704C103.251 152.605 103.272 152.509 103.297 152.413C103.34 152.225 103.386 152.036 103.435 151.858C103.506 151.59 103.581 151.339 103.659 151.108C103.943 150.252 104.272 149.65 104.645 149.475L107.107 145.948L107.209 145.8L107.255 145.734L107.167 145.727Z" fill="black"/>
<path opacity="0.1" d="M102.687 122.317C102.332 122.773 102.361 123.401 102.201 123.969C101.821 125.261 100.318 126.071 99.9735 127.373C99.7713 128.134 100.005 128.94 99.8671 129.713C99.6152 131.138 98.2177 132.103 97.4374 133.349C97.0418 133.991 96.8072 134.708 96.7513 135.446C96.6954 136.185 96.8196 136.925 97.1146 137.613C97.2971 137.959 97.4478 138.32 97.5651 138.69C97.6545 139.242 97.6171 139.805 97.4551 140.343C97.1891 141.519 96.9159 142.815 97.526 143.876C98.0403 144.772 99.108 145.297 100.183 145.462C101.268 145.577 102.366 145.53 103.435 145.324C104.609 145.155 105.812 144.96 106.833 144.398L102.992 135.759C102.605 134.886 102.208 133.984 102.212 133.038C102.243 132.341 102.405 131.654 102.69 131.009C103.434 129.14 104.514 127.402 105.883 125.87C106.44 126.471 106.397 127.387 106.862 128.054C107.272 128.548 107.819 128.928 108.444 129.155C110.264 129.982 112.134 130.711 114.045 131.336C114.164 131.35 114.279 131.392 114.377 131.457C114.476 131.522 114.556 131.608 114.61 131.709C114.664 131.81 114.69 131.921 114.687 132.034C114.684 132.146 114.651 132.256 114.591 132.354L113.144 137.92C112.824 139.146 112.544 140.564 113.363 141.556C114.183 142.547 116.031 143.017 116.041 144.296C116.026 144.498 116.026 144.701 116.041 144.904C116.137 145.502 116.9 145.79 117.549 145.819C118.615 145.839 119.653 145.505 120.479 144.877C121.305 144.249 121.864 143.369 122.057 142.392C122.412 140.204 120.858 138.188 120.209 136.056C119.117 132.47 120.564 128.262 118.418 125.113C116.68 122.558 113.512 121.864 110.505 121.546C108.394 121.315 104.173 120.489 102.687 122.317Z" fill="black"/>
<path opacity="0.5" d="M102.687 121.986C102.332 122.442 102.361 123.07 102.201 123.639C101.821 124.931 100.318 125.741 99.9735 127.043C99.7713 127.803 100.005 128.61 99.8671 129.383C99.6152 130.808 98.2177 131.773 97.4374 133.019C97.0418 133.661 96.8072 134.378 96.7513 135.116C96.6954 135.854 96.8196 136.595 97.1146 137.282C97.2971 137.629 97.4478 137.989 97.5651 138.36C97.6545 138.912 97.6171 139.475 97.4551 140.012C97.1891 141.189 96.9159 142.485 97.526 143.546C98.0403 144.441 99.108 144.967 100.183 145.132C101.268 145.246 102.366 145.199 103.435 144.993C104.609 144.825 105.812 144.63 106.833 144.068L102.992 135.428C102.605 134.556 102.208 133.653 102.212 132.708C102.243 132.011 102.405 131.324 102.69 130.679C103.434 128.809 104.514 127.071 105.883 125.539C106.44 126.141 106.397 127.056 106.862 127.724C107.272 128.217 107.819 128.598 108.444 128.824C110.264 129.652 112.134 130.38 114.045 131.006C114.164 131.02 114.279 131.061 114.377 131.126C114.476 131.191 114.556 131.278 114.61 131.379C114.664 131.479 114.69 131.591 114.687 131.703C114.684 131.816 114.651 131.926 114.591 132.024L113.144 137.59C112.824 138.816 112.544 140.234 113.363 141.225C114.183 142.217 116.031 142.686 116.041 143.965C116.026 144.168 116.026 144.371 116.041 144.573C116.137 145.172 116.9 145.459 117.549 145.489C118.615 145.509 119.653 145.175 120.479 144.547C121.305 143.919 121.864 143.038 122.057 142.062C122.412 139.874 120.858 137.857 120.209 135.726C119.117 132.139 120.564 127.932 118.418 124.782C116.68 122.227 113.512 121.533 110.505 121.216C108.394 120.985 104.173 120.158 102.687 121.986Z" fill="#493545"/>
</g>
<g opacity="0.5">
<path opacity="0.5" d="M100.505 210.514C100.537 211.621 99.7285 212.567 99.0864 213.489C98.4444 214.411 97.9691 215.67 98.6289 216.592C98.8453 216.897 99.1716 217.131 99.3667 217.448C100.051 218.556 98.9127 219.828 98.4977 221.044C98.0188 222.449 98.5757 224.019 99.583 225.159C100.59 226.3 101.981 227.07 103.385 227.747C106.339 229.214 109.509 230.265 112.792 230.867C114.509 231.161 116.339 231.294 117.95 230.652C119.067 230.175 119.98 229.361 120.541 228.342C121.103 227.323 121.28 226.158 121.046 225.034C120.638 223.295 119.273 221.897 118.563 220.255C118.398 219.932 118.317 219.577 118.329 219.22C118.389 218.595 118.904 218.106 119.304 217.6C120.31 216.224 120.72 214.544 120.454 212.897C120.174 211.251 119.497 209.684 118.474 208.316C118.109 207.749 117.627 207.255 117.056 206.862C116.282 206.376 115.325 206.237 114.402 206.115C110.55 205.613 106.56 205.064 102.676 204.879C101.449 204.82 100.548 205.044 99.9413 206.115C99.0155 207.712 100.459 208.911 100.505 210.514Z" fill="#444176"/>
<path opacity="0.5" d="M120.344 221.755L113.033 231.442L105.897 230.864C105.897 230.864 105.663 233.178 102.793 224.792C101.19 220.102 104.45 221.732 105.092 220.433C105.734 219.134 106.865 217.987 106.961 217.029C107.188 214.973 106.518 213.803 106.518 213.803L114.275 212.937C113.925 213.911 113.881 214.958 114.147 215.954C115.119 219.716 120.344 221.755 120.344 221.755Z" fill="#C77485"/>
<path opacity="0.5" d="M109.348 213.496C114.442 213.496 118.571 210.462 118.571 206.72C118.571 202.978 114.442 199.944 109.348 199.944C104.255 199.944 100.126 202.978 100.126 206.72C100.126 210.462 104.255 213.496 109.348 213.496Z" fill="#444176"/>
<path opacity="0.1" d="M114.143 215.951C113.132 216.665 111.947 217.137 110.694 217.324C109.441 217.512 108.158 217.411 106.957 217.029C107.184 214.973 106.514 213.803 106.514 213.803L114.271 212.937C113.922 213.91 113.877 214.956 114.143 215.951Z" fill="black"/>
<path opacity="0.5" d="M109.464 217.128C113.749 217.128 117.222 213.892 117.222 209.899C117.222 205.907 113.749 202.671 109.464 202.671C105.18 202.671 101.707 205.907 101.707 209.899C101.707 213.892 105.18 217.128 109.464 217.128Z" fill="#C77485"/>
<path opacity="0.1" d="M119.577 222.852L119.396 222.191L119.24 221.61L119.01 220.75L118.967 220.592L118.932 220.459C118.932 220.459 119.116 219.941 117.899 220.109L117.672 220.145C117.481 220.182 117.257 220.231 117.002 220.298L116.771 220.364L116.466 220.453C115.501 220.746 114.62 221.241 113.891 221.901C113.564 222.192 113.275 222.518 113.029 222.872C113.005 222.905 112.987 222.935 112.966 222.961C112.882 223.084 112.807 223.212 112.742 223.345C112.742 225.949 109.947 229.129 109.947 229.129L107.219 225.457L107.166 225.384L106.517 224.505L106.286 224.221L106.208 224.122L104.79 222.347L104.435 221.904L104.318 221.755L104.144 221.54L103.736 221.035L102.14 221.904L100.012 223.061L98.7703 230.58V230.788L98.8093 231.409L99.0683 235.495V235.551L98.6143 237.243L98.6817 237.276C99.753 237.814 100.868 238.274 102.016 238.651L102.317 238.75C102.672 238.859 103.005 238.958 103.353 239.054C103.366 239.103 103.375 239.153 103.381 239.203C103.381 239.157 103.381 239.107 103.381 239.061C107.734 240.22 112.348 240.22 116.701 239.061L116.782 239.038C116.984 238.985 117.19 238.929 117.389 238.866L117.711 238.77C118.587 238.497 119.444 238.177 120.279 237.811L120.577 231.895L120.79 227.628V227.384L119.577 222.852Z" fill="black"/>
<path opacity="0.5" d="M117.023 233.842C117.023 233.71 117.023 233.578 116.999 233.445C116.974 233.313 116.977 233.198 116.96 233.072C116.942 232.946 116.928 232.821 116.91 232.695C116.892 232.57 116.867 232.444 116.842 232.318C116.818 232.193 116.793 232.067 116.764 231.942C116.764 231.899 116.747 231.859 116.736 231.816C116.697 231.651 116.655 231.485 116.608 231.317C116.562 231.148 116.534 231.049 116.491 230.917C116.491 230.857 116.456 230.798 116.435 230.742C116.413 230.686 116.374 230.55 116.342 230.454L116.279 230.269C116.25 230.187 116.222 230.104 116.19 230.021C116.137 229.873 116.08 229.727 116.023 229.578C115.966 229.43 115.906 229.284 115.846 229.139C115.725 228.841 115.594 228.547 115.463 228.253C114.948 227.109 114.37 225.982 113.838 224.865C113.552 224.28 113.299 223.681 113.079 223.071L113.012 223.16C112.904 223.312 112.808 223.471 112.724 223.636C112.724 226.237 109.929 229.42 109.929 229.42L107.117 225.602L104.655 229.129C104.3 229.304 103.946 229.906 103.669 230.762C103.591 230.993 103.516 231.244 103.445 231.512C103.396 231.69 103.35 231.879 103.307 232.067C103.282 232.163 103.261 232.259 103.24 232.358L103.176 232.659V232.705C103.133 232.91 103.091 233.122 103.052 233.336C103.013 233.551 102.967 233.799 102.928 234.034C102.899 234.186 102.874 234.338 102.853 234.49C102.803 234.784 102.761 235.081 102.718 235.376C102.693 235.547 102.669 235.706 102.647 235.888L102.562 236.549C102.743 237.091 102.945 237.626 103.155 238.152C103.288 238.44 103.366 238.748 103.385 239.061C107.738 240.22 112.352 240.22 116.704 239.061C116.703 239.05 116.703 239.039 116.704 239.028C116.639 238.731 116.61 238.428 116.619 238.125C116.691 237.278 116.809 236.434 116.974 235.597C117.026 235.185 117.049 234.769 117.041 234.354V234.206C117.03 234.08 117.027 233.961 117.023 233.842ZM117.023 233.842C117.023 233.71 117.023 233.578 116.999 233.445C116.974 233.313 116.977 233.198 116.96 233.072C116.942 232.946 116.928 232.821 116.91 232.695C116.892 232.57 116.867 232.444 116.842 232.318C116.818 232.193 116.793 232.067 116.764 231.942C116.764 231.899 116.747 231.859 116.736 231.816C116.697 231.651 116.655 231.485 116.608 231.317C116.562 231.148 116.534 231.049 116.491 230.917C116.491 230.857 116.456 230.798 116.435 230.742C116.413 230.686 116.374 230.55 116.342 230.454L116.279 230.269C116.25 230.187 116.222 230.104 116.19 230.021C116.137 229.873 116.08 229.727 116.023 229.578C115.966 229.43 115.906 229.284 115.846 229.139C115.725 228.841 115.594 228.547 115.463 228.253C114.948 227.109 114.37 225.982 113.838 224.865C113.552 224.28 113.299 223.681 113.079 223.071L113.012 223.16C112.904 223.312 112.808 223.471 112.724 223.636C112.724 226.237 109.929 229.42 109.929 229.42L107.117 225.602L104.655 229.129C104.3 229.304 103.946 229.906 103.669 230.762C103.591 230.993 103.516 231.244 103.445 231.512C103.396 231.69 103.35 231.879 103.307 232.067C103.282 232.163 103.261 232.259 103.24 232.358L103.176 232.659V232.705C103.133 232.91 103.091 233.122 103.052 233.336C103.013 233.551 102.967 233.799 102.928 234.034C102.899 234.186 102.874 234.338 102.853 234.49C102.803 234.784 102.761 235.081 102.718 235.376C102.693 235.547 102.669 235.706 102.647 235.888L102.562 236.549C102.743 237.091 102.945 237.626 103.155 238.152C103.288 238.44 103.366 238.748 103.385 239.061C107.738 240.22 112.352 240.22 116.704 239.061C116.703 239.05 116.703 239.039 116.704 239.028C116.639 238.731 116.61 238.428 116.619 238.125C116.691 237.278 116.809 236.434 116.974 235.597C117.026 235.185 117.049 234.769 117.041 234.354V234.206C117.03 234.08 117.027 233.961 117.023 233.842ZM117.023 233.842C117.023 233.71 117.023 233.578 116.999 233.445C116.974 233.313 116.977 233.198 116.96 233.072C116.942 232.946 116.928 232.821 116.91 232.695C116.892 232.57 116.867 232.444 116.842 232.318C116.818 232.193 116.793 232.067 116.764 231.942C116.764 231.899 116.747 231.859 116.736 231.816C116.697 231.651 116.655 231.485 116.608 231.317C116.562 231.148 116.534 231.049 116.491 230.917C116.491 230.857 116.456 230.798 116.435 230.742C116.413 230.686 116.374 230.55 116.342 230.454L116.279 230.269C116.25 230.187 116.222 230.104 116.19 230.021C116.137 229.873 116.08 229.727 116.023 229.578C115.966 229.43 115.906 229.284 115.846 229.139C115.725 228.841 115.594 228.547 115.463 228.253C114.948 227.109 114.37 225.982 113.838 224.865C113.552 224.28 113.299 223.681 113.079 223.071L113.012 223.16C112.904 223.312 112.808 223.471 112.724 223.636C112.724 226.237 109.929 229.42 109.929 229.42L107.117 225.602L104.655 229.129C104.3 229.304 103.946 229.906 103.669 230.762C103.591 230.993 103.516 231.244 103.445 231.512C103.396 231.69 103.35 231.879 103.307 232.067C103.282 232.163 103.261 232.259 103.24 232.358L103.176 232.659V232.705C103.133 232.91 103.091 233.122 103.052 233.336C103.013 233.551 102.967 233.799 102.928 234.034C102.899 234.186 102.874 234.338 102.853 234.49C102.803 234.784 102.761 235.081 102.718 235.376C102.693 235.547 102.669 235.706 102.647 235.888L102.562 236.549C102.743 237.091 102.945 237.626 103.155 238.152C103.288 238.44 103.366 238.748 103.385 239.061C107.738 240.22 112.352 240.22 116.704 239.061C116.703 239.05 116.703 239.039 116.704 239.028C116.639 238.731 116.61 238.428 116.619 238.125C116.691 237.278 116.809 236.434 116.974 235.597C117.026 235.185 117.049 234.769 117.041 234.354V234.206C117.03 234.08 117.027 233.961 117.023 233.842ZM120.783 227.638L119.517 222.928L119.301 222.122L119.24 221.901L118.932 220.75C118.932 220.74 118.932 220.73 118.932 220.721C118.939 220.67 118.93 220.618 118.907 220.572C118.861 220.486 118.744 220.397 118.471 220.374C118.367 220.367 118.262 220.367 118.158 220.374C117.85 220.402 117.545 220.455 117.247 220.532C117.101 220.569 116.945 220.608 116.779 220.658L116.474 220.747H116.445C115.628 220.997 114.87 221.389 114.211 221.904C113.775 222.242 113.393 222.636 113.076 223.074L113.008 223.163C112.9 223.315 112.804 223.474 112.721 223.639C112.721 226.24 109.926 229.423 109.926 229.423L107.113 225.606L106.953 225.391L106.925 225.354L106.517 224.796L106.209 224.412L106.127 224.313L104.673 222.505L104.212 221.92V221.901L104.052 221.699L103.747 221.322L102.683 221.901L100.023 223.345L98.7952 230.785V230.864L98.8307 231.406L99.0932 235.547V235.782L98.6924 237.273C99.7637 237.811 100.878 238.271 102.027 238.648L102.328 238.747C102.683 238.856 103.016 238.955 103.364 239.051C103.377 239.1 103.386 239.15 103.392 239.2C103.392 239.153 103.392 239.104 103.392 239.058C107.745 240.217 112.359 240.217 116.711 239.058L116.793 239.034C116.995 238.982 117.201 238.925 117.399 238.863L117.722 238.767C118.597 238.494 119.455 238.174 120.29 237.808L120.585 231.899L120.797 227.678L120.783 227.638ZM103.339 239.051C103.352 239.1 103.361 239.15 103.367 239.2C103.367 239.153 103.367 239.104 103.367 239.058L103.339 239.051ZM117.023 233.842C117.023 233.71 117.023 233.578 116.999 233.445C116.974 233.313 116.977 233.198 116.96 233.072C116.942 232.946 116.928 232.821 116.91 232.695C116.892 232.57 116.867 232.444 116.842 232.318C116.818 232.193 116.793 232.067 116.764 231.942C116.764 231.899 116.747 231.859 116.736 231.816C116.697 231.651 116.655 231.485 116.608 231.317C116.562 231.148 116.534 231.049 116.491 230.917C116.491 230.857 116.456 230.798 116.435 230.742C116.413 230.686 116.374 230.55 116.342 230.454L116.279 230.269C116.25 230.187 116.222 230.104 116.19 230.021C116.137 229.873 116.08 229.727 116.023 229.578C115.966 229.43 115.906 229.284 115.846 229.139C115.725 228.841 115.594 228.547 115.463 228.253C114.948 227.109 114.37 225.982 113.838 224.865C113.552 224.28 113.299 223.681 113.079 223.071L113.012 223.16C112.904 223.312 112.808 223.471 112.724 223.636C112.724 226.237 109.929 229.42 109.929 229.42L107.117 225.602L104.655 229.129C104.3 229.304 103.946 229.906 103.669 230.762C103.591 230.993 103.516 231.244 103.445 231.512C103.396 231.69 103.35 231.879 103.307 232.067C103.282 232.163 103.261 232.259 103.24 232.358L103.176 232.659V232.705C103.133 232.91 103.091 233.122 103.052 233.336C103.013 233.551 102.967 233.799 102.928 234.034C102.899 234.186 102.874 234.338 102.853 234.49C102.803 234.784 102.761 235.081 102.718 235.376C102.693 235.547 102.669 235.706 102.647 235.888L102.562 236.549C102.743 237.091 102.945 237.626 103.155 238.152C103.288 238.44 103.366 238.748 103.385 239.061C107.738 240.22 112.352 240.22 116.704 239.061C116.703 239.05 116.703 239.039 116.704 239.028C116.639 238.731 116.61 238.428 116.619 238.125C116.691 237.278 116.809 236.434 116.974 235.597C117.026 235.185 117.049 234.769 117.041 234.354V234.206C117.03 234.08 117.027 233.961 117.023 233.842ZM117.023 233.842C117.023 233.71 117.023 233.578 116.999 233.445C116.974 233.313 116.977 233.198 116.96 233.072C116.942 232.946 116.928 232.821 116.91 232.695C116.892 232.57 116.867 232.444 116.842 232.318C116.818 232.193 116.793 232.067 116.764 231.942C116.764 231.899 116.747 231.859 116.736 231.816C116.697 231.651 116.655 231.485 116.608 231.317C116.562 231.148 116.534 231.049 116.491 230.917C116.491 230.857 116.456 230.798 116.435 230.742C116.413 230.686 116.374 230.55 116.342 230.454L116.279 230.269C116.25 230.187 116.222 230.104 116.19 230.021C116.137 229.873 116.08 229.727 116.023 229.578C115.966 229.43 115.906 229.284 115.846 229.139C115.725 228.841 115.594 228.547 115.463 228.253C114.948 227.109 114.37 225.982 113.838 224.865C113.552 224.28 113.299 223.681 113.079 223.071L113.012 223.16C112.904 223.312 112.808 223.471 112.724 223.636C112.724 226.237 109.929 229.42 109.929 229.42L107.117 225.602L104.655 229.129C104.3 229.304 103.946 229.906 103.669 230.762C103.591 230.993 103.516 231.244 103.445 231.512C103.396 231.69 103.35 231.879 103.307 232.067C103.282 232.163 103.261 232.259 103.24 232.358L103.176 232.659V232.705C103.133 232.91 103.091 233.122 103.052 233.336C103.013 233.551 102.967 233.799 102.928 234.034C102.899 234.186 102.874 234.338 102.853 234.49C102.803 234.784 102.761 235.081 102.718 235.376C102.693 235.547 102.669 235.706 102.647 235.888L102.562 236.549C102.743 237.091 102.945 237.626 103.155 238.152C103.288 238.44 103.366 238.748 103.385 239.061C107.738 240.22 112.352 240.22 116.704 239.061C116.703 239.05 116.703 239.039 116.704 239.028C116.639 238.731 116.61 238.428 116.619 238.125C116.691 237.278 116.809 236.434 116.974 235.597C117.026 235.185 117.049 234.769 117.041 234.354V234.206C117.03 234.08 117.027 233.961 117.023 233.842ZM117.023 233.842C117.023 233.71 117.023 233.578 116.999 233.445C116.974 233.313 116.977 233.198 116.96 233.072C116.942 232.946 116.928 232.821 116.91 232.695C116.892 232.57 116.867 232.444 116.842 232.318C116.818 232.193 116.793 232.067 116.764 231.942C116.764 231.899 116.747 231.859 116.736 231.816C116.697 231.651 116.655 231.485 116.608 231.317C116.562 231.148 116.534 231.049 116.491 230.917C116.491 230.857 116.456 230.798 116.435 230.742C116.413 230.686 116.374 230.55 116.342 230.454L116.279 230.269C116.25 230.187 116.222 230.104 116.19 230.021C116.137 229.873 116.08 229.727 116.023 229.578C115.966 229.43 115.906 229.284 115.846 229.139C115.725 228.841 115.594 228.547 115.463 228.253C114.948 227.109 114.37 225.982 113.838 224.865C113.552 224.28 113.299 223.681 113.079 223.071L113.012 223.16C112.904 223.312 112.808 223.471 112.724 223.636C112.724 226.237 109.929 229.42 109.929 229.42L107.117 225.602L104.655 229.129C104.3 229.304 103.946 229.906 103.669 230.762C103.591 230.993 103.516 231.244 103.445 231.512C103.396 231.69 103.35 231.879 103.307 232.067C103.282 232.163 103.261 232.259 103.24 232.358L103.176 232.659V232.705C103.133 232.91 103.091 233.122 103.052 233.336C103.013 233.551 102.967 233.799 102.928 234.034C102.899 234.186 102.874 234.338 102.853 234.49C102.803 234.784 102.761 235.081 102.718 235.376C102.693 235.547 102.669 235.706 102.647 235.888L102.562 236.549C102.743 237.091 102.945 237.626 103.155 238.152C103.288 238.44 103.366 238.748 103.385 239.061C107.738 240.22 112.352 240.22 116.704 239.061C116.703 239.05 116.703 239.039 116.704 239.028C116.639 238.731 116.61 238.428 116.619 238.125C116.691 237.278 116.809 236.434 116.974 235.597C117.026 235.185 117.049 234.769 117.041 234.354V234.206C117.03 234.08 117.027 233.961 117.023 233.842ZM117.023 233.842C117.023 233.71 117.023 233.578 116.999 233.445C116.974 233.313 116.977 233.198 116.96 233.072C116.942 232.946 116.928 232.821 116.91 232.695C116.892 232.57 116.867 232.444 116.842 232.318C116.818 232.193 116.793 232.067 116.764 231.942C116.764 231.899 116.747 231.859 116.736 231.816C116.697 231.651 116.655 231.485 116.608 231.317C116.562 231.148 116.534 231.049 116.491 230.917C116.491 230.857 116.456 230.798 116.435 230.742C116.413 230.686 116.374 230.55 116.342 230.454L116.279 230.269C116.25 230.187 116.222 230.104 116.19 230.021C116.137 229.873 116.08 229.727 116.023 229.578C115.966 229.43 115.906 229.284 115.846 229.139C115.725 228.841 115.594 228.547 115.463 228.253C114.948 227.109 114.37 225.982 113.838 224.865C113.552 224.28 113.299 223.681 113.079 223.071L113.012 223.16C112.904 223.312 112.808 223.471 112.724 223.636C112.724 226.237 109.929 229.42 109.929 229.42L107.117 225.602L104.655 229.129C104.3 229.304 103.946 229.906 103.669 230.762C103.591 230.993 103.516 231.244 103.445 231.512C103.396 231.69 103.35 231.879 103.307 232.067C103.282 232.163 103.261 232.259 103.24 232.358L103.176 232.659V232.705C103.133 232.91 103.091 233.122 103.052 233.336C103.013 233.551 102.967 233.799 102.928 234.034C102.899 234.186 102.874 234.338 102.853 234.49C102.803 234.784 102.761 235.081 102.718 235.376C102.693 235.547 102.669 235.706 102.647 235.888L102.562 236.549C102.743 237.091 102.945 237.626 103.155 238.152C103.288 238.44 103.366 238.748 103.385 239.061C107.738 240.22 112.352 240.22 116.704 239.061C116.703 239.05 116.703 239.039 116.704 239.028C116.639 238.731 116.61 238.428 116.619 238.125C116.691 237.278 116.809 236.434 116.974 235.597C117.026 235.185 117.049 234.769 117.041 234.354V234.206C117.03 234.08 117.027 233.961 117.023 233.842ZM117.023 233.842C117.023 233.71 117.023 233.578 116.999 233.445C116.974 233.313 116.977 233.198 116.96 233.072C116.942 232.946 116.928 232.821 116.91 232.695C116.892 232.57 116.867 232.444 116.842 232.318C116.818 232.193 116.793 232.067 116.764 231.942C116.764 231.899 116.747 231.859 116.736 231.816C116.697 231.651 116.655 231.485 116.608 231.317C116.562 231.148 116.534 231.049 116.491 230.917C116.491 230.857 116.456 230.798 116.435 230.742C116.413 230.686 116.374 230.55 116.342 230.454L116.279 230.269C116.25 230.187 116.222 230.104 116.19 230.021C116.137 229.873 116.08 229.727 116.023 229.578C115.966 229.43 115.906 229.284 115.846 229.139C115.725 228.841 115.594 228.547 115.463 228.253C114.948 227.109 114.37 225.982 113.838 224.865C113.552 224.28 113.299 223.681 113.079 223.071L113.012 223.16C112.904 223.312 112.808 223.471 112.724 223.636C112.724 226.237 109.929 229.42 109.929 229.42L107.117 225.602L104.655 229.129C104.3 229.304 103.946 229.906 103.669 230.762C103.591 230.993 103.516 231.244 103.445 231.512C103.396 231.69 103.35 231.879 103.307 232.067C103.282 232.163 103.261 232.259 103.24 232.358L103.176 232.659V232.705C103.133 232.91 103.091 233.122 103.052 233.336C103.013 233.551 102.967 233.799 102.928 234.034C102.899 234.186 102.874 234.338 102.853 234.49C102.803 234.784 102.761 235.081 102.718 235.376C102.693 235.547 102.669 235.706 102.647 235.888L102.562 236.549C102.743 237.091 102.945 237.626 103.155 238.152C103.288 238.44 103.366 238.748 103.385 239.061C107.738 240.22 112.352 240.22 116.704 239.061C116.703 239.05 116.703 239.039 116.704 239.028C116.639 238.731 116.61 238.428 116.619 238.125C116.691 237.278 116.809 236.434 116.974 235.597C117.026 235.185 117.049 234.769 117.041 234.354V234.206C117.03 234.08 117.027 233.961 117.023 233.842ZM117.023 233.842C117.023 233.71 117.023 233.578 116.999 233.445C116.974 233.313 116.977 233.198 116.96 233.072C116.942 232.946 116.928 232.821 116.91 232.695C116.892 232.57 116.867 232.444 116.842 232.318C116.818 232.193 116.793 232.067 116.764 231.942C116.764 231.899 116.747 231.859 116.736 231.816C116.697 231.651 116.655 231.485 116.608 231.317C116.562 231.148 116.534 231.049 116.491 230.917C116.491 230.857 116.456 230.798 116.435 230.742C116.413 230.686 116.374 230.55 116.342 230.454L116.279 230.269C116.25 230.187 116.222 230.104 116.19 230.021C116.137 229.873 116.08 229.727 116.023 229.578C115.966 229.43 115.906 229.284 115.846 229.139C115.725 228.841 115.594 228.547 115.463 228.253C114.948 227.109 114.37 225.982 113.838 224.865C113.552 224.28 113.299 223.681 113.079 223.071L113.012 223.16C112.904 223.312 112.808 223.471 112.724 223.636C112.724 226.237 109.929 229.42 109.929 229.42L107.117 225.602L104.655 229.129C104.3 229.304 103.946 229.906 103.669 230.762C103.591 230.993 103.516 231.244 103.445 231.512C103.396 231.69 103.35 231.879 103.307 232.067C103.282 232.163 103.261 232.259 103.24 232.358L103.176 232.659V232.705C103.133 232.91 103.091 233.122 103.052 233.336C103.013 233.551 102.967 233.799 102.928 234.034C102.899 234.186 102.874 234.338 102.853 234.49C102.803 234.784 102.761 235.081 102.718 235.376C102.693 235.547 102.669 235.706 102.647 235.888L102.562 236.549C102.743 237.091 102.945 237.626 103.155 238.152C103.288 238.44 103.366 238.748 103.385 239.061C107.738 240.22 112.352 240.22 116.704 239.061C116.703 239.05 116.703 239.039 116.704 239.028C116.639 238.731 116.61 238.428 116.619 238.125C116.691 237.278 116.809 236.434 116.974 235.597C117.026 235.185 117.049 234.769 117.041 234.354V234.206C117.03 234.08 117.027 233.961 117.023 233.842ZM117.023 233.842C117.023 233.71 117.023 233.578 116.999 233.445C116.974 233.313 116.977 233.198 116.96 233.072C116.942 232.946 116.928 232.821 116.91 232.695C116.892 232.57 116.867 232.444 116.842 232.318C116.818 232.193 116.793 232.067 116.764 231.942C116.764 231.899 116.747 231.859 116.736 231.816C116.697 231.651 116.655 231.485 116.608 231.317C116.562 231.148 116.534 231.049 116.491 230.917C116.491 230.857 116.456 230.798 116.435 230.742C116.413 230.686 116.374 230.55 116.342 230.454L116.279 230.269C116.25 230.187 116.222 230.104 116.19 230.021C116.137 229.873 116.08 229.727 116.023 229.578C115.966 229.43 115.906 229.284 115.846 229.139C115.725 228.841 115.594 228.547 115.463 228.253C114.948 227.109 114.37 225.982 113.838 224.865C113.552 224.28 113.299 223.681 113.079 223.071L113.012 223.16C112.904 223.312 112.808 223.471 112.724 223.636C112.724 226.237 109.929 229.42 109.929 229.42L107.117 225.602L104.655 229.129C104.3 229.304 103.946 229.906 103.669 230.762C103.591 230.993 103.516 231.244 103.445 231.512C103.396 231.69 103.35 231.879 103.307 232.067C103.282 232.163 103.261 232.259 103.24 232.358L103.176 232.659V232.705C103.133 232.91 103.091 233.122 103.052 233.336C103.013 233.551 102.967 233.799 102.928 234.034C102.899 234.186 102.874 234.338 102.853 234.49C102.803 234.784 102.761 235.081 102.718 235.376C102.693 235.547 102.669 235.706 102.647 235.888L102.562 236.549C102.743 237.091 102.945 237.626 103.155 238.152C103.288 238.44 103.366 238.748 103.385 239.061C107.738 240.22 112.352 240.22 116.704 239.061C116.703 239.05 116.703 239.039 116.704 239.028C116.639 238.731 116.61 238.428 116.619 238.125C116.691 237.278 116.809 236.434 116.974 235.597C117.026 235.185 117.049 234.769 117.041 234.354V234.206C117.03 234.08 117.027 233.961 117.023 233.842ZM117.023 233.842C117.023 233.71 117.023 233.578 116.999 233.445C116.974 233.313 116.977 233.198 116.96 233.072C116.942 232.946 116.928 232.821 116.91 232.695C116.892 232.57 116.867 232.444 116.842 232.318C116.818 232.193 116.793 232.067 116.764 231.942C116.764 231.899 116.747 231.859 116.736 231.816C116.697 231.651 116.655 231.485 116.608 231.317C116.562 231.148 116.534 231.049 116.491 230.917C116.491 230.857 116.456 230.798 116.435 230.742C116.413 230.686 116.374 230.55 116.342 230.454L116.279 230.269C116.25 230.187 116.222 230.104 116.19 230.021C116.137 229.873 116.08 229.727 116.023 229.578C115.966 229.43 115.906 229.284 115.846 229.139C115.725 228.841 115.594 228.547 115.463 228.253C114.948 227.109 114.37 225.982 113.838 224.865C113.552 224.28 113.299 223.681 113.079 223.071L113.012 223.16C112.904 223.312 112.808 223.471 112.724 223.636C112.724 226.237 109.929 229.42 109.929 229.42L107.117 225.602L104.655 229.129C104.3 229.304 103.946 229.906 103.669 230.762C103.591 230.993 103.516 231.244 103.445 231.512C103.396 231.69 103.35 231.879 103.307 232.067C103.282 232.163 103.261 232.259 103.24 232.358L103.176 232.659V232.705C103.133 232.91 103.091 233.122 103.052 233.336C103.013 233.551 102.967 233.799 102.928 234.034C102.899 234.186 102.874 234.338 102.853 234.49C102.803 234.784 102.761 235.081 102.718 235.376C102.693 235.547 102.669 235.706 102.647 235.888L102.562 236.549C102.743 237.091 102.945 237.626 103.155 238.152C103.288 238.44 103.366 238.748 103.385 239.061C107.738 240.22 112.352 240.22 116.704 239.061C116.703 239.05 116.703 239.039 116.704 239.028C116.639 238.731 116.61 238.428 116.619 238.125C116.691 237.278 116.809 236.434 116.974 235.597C117.026 235.185 117.049 234.769 117.041 234.354V234.206C117.03 234.08 117.027 233.961 117.023 233.842Z" fill="#444176"/>
<path opacity="0.1" d="M107.167 225.381L106.929 225.351C106.57 225.306 106.215 225.239 105.865 225.153L105.734 225.12C104.868 224.892 103.921 224.482 103.708 223.761C103.645 223.529 103.652 223.285 103.73 223.057C103.849 222.664 104.01 222.283 104.212 221.92V221.9C104.239 221.849 104.268 221.8 104.301 221.752C104.593 221.219 105.036 220.77 105.581 220.453L105.156 220.516L101.552 221.061L95.9653 221.9C95.9653 221.9 94.9722 221.715 93.6207 225.186C93.6207 225.229 93.5888 225.268 93.5746 225.315C93.2483 226.164 92.9042 227.225 92.5495 228.55C92.3048 229.469 92.0813 230.372 91.8756 231.247C91.8153 231.512 91.755 231.773 91.6982 232.031C92.3378 232.733 93.0262 233.396 93.7591 234.014L93.8761 234.116C95.3116 235.327 96.8978 236.374 98.6007 237.233L98.6681 237.266C99.7395 237.804 100.854 238.264 102.002 238.641L102.304 238.74C102.368 238.129 102.439 237.451 102.524 236.757C102.524 236.688 102.524 236.618 102.552 236.549L102.637 235.888C102.659 235.719 102.683 235.557 102.708 235.375C102.751 235.081 102.793 234.784 102.843 234.49C102.864 234.338 102.889 234.186 102.917 234.034C102.956 233.799 102.999 233.564 103.042 233.336C103.084 233.108 103.123 232.91 103.166 232.705V232.659L103.23 232.358C103.251 232.259 103.272 232.163 103.297 232.067C103.34 231.879 103.386 231.69 103.435 231.512C103.506 231.244 103.581 230.993 103.659 230.761C103.943 229.905 104.272 229.304 104.645 229.129L107.107 225.602L107.209 225.453L107.255 225.387L107.167 225.381Z" fill="black"/>
<path opacity="0.1" d="M107.759 207.784C108.865 207.609 109.979 207.232 111.079 207.454C112.001 207.632 112.771 208.204 113.615 208.601C114.43 208.983 115.321 209.202 116.233 209.245C116.565 209.286 116.902 209.224 117.194 209.07C117.634 208.786 117.697 208.204 117.623 207.708C117.41 206.3 116.467 205.091 115.495 203.993C115.107 203.524 114.659 203.102 114.161 202.734C112.888 201.858 111.203 201.709 109.624 201.775C107.823 201.852 105.992 202.175 104.428 203.018C103.364 203.587 100.924 205.378 101.771 206.674C102.662 208.029 106.365 208.006 107.759 207.784Z" fill="black"/>
<path opacity="0.5" d="M107.759 207.454C108.865 207.279 109.979 206.902 111.079 207.123C112.001 207.302 112.771 207.873 113.615 208.27C114.43 208.652 115.321 208.872 116.233 208.915C116.565 208.955 116.902 208.894 117.194 208.739C117.634 208.455 117.697 207.873 117.623 207.378C117.41 205.97 116.467 204.76 115.495 203.663C115.107 203.194 114.659 202.771 114.161 202.403C112.888 201.528 111.203 201.379 109.624 201.445C107.823 201.521 105.992 201.845 104.428 202.688C103.364 203.256 100.924 205.048 101.771 206.343C102.662 207.698 106.365 207.675 107.759 207.454Z" fill="#444176"/>
</g>
<path d="M205.163 191.268H205.216C205.294 193.483 205.631 195.486 206.281 196.041C207.827 197.363 214.24 194.719 213.8 193.119C213.712 192.789 213.563 192.247 213.375 191.563C215.106 191.361 216.585 190.902 217.173 189.956L218.287 193.156L218.365 193.384H218.387H218.45C219.185 199.868 220.848 213.334 222.178 215.138C223.952 217.528 225.991 227.883 225.991 227.883L229.804 249.125C229.804 249.125 231.273 261.354 232.153 262.676C232.408 262.928 232.748 263.093 233.117 263.142C232.603 264.576 231.865 266.252 230.989 267.188C229.216 269.045 226.882 272.763 224.828 272.499C222.774 272.234 222.189 276.217 226.002 276.746C228.112 277.04 231.479 276.683 234.064 276.306C234.064 277.371 234.859 278.594 236.856 278.871C240.669 279.403 248.589 277.81 248.589 277.81C248.589 277.81 255.329 275.166 255.63 273.295C255.843 271.94 254.811 266.5 254.236 263.648C255.3 262.058 254.165 248.338 254.165 248.338L252.112 222.053C252.112 222.053 253.286 207.45 252.112 204.793C251.377 203.141 251.104 195.539 251.001 190.102L252.42 190.188C252.501 190.097 252.574 190.001 252.64 189.9L252.995 189.923C252.995 189.923 254.768 188.066 253.289 185.144C252.2 182.973 252.406 173.17 252.58 168.288L252.789 165.974C252.867 165.904 252.926 165.818 252.963 165.723C255.714 165.377 258.388 164.623 260.883 163.489C261.636 163.197 262.337 162.8 262.962 162.312C264.43 160.99 263.547 153.018 260.614 141.07C257.68 129.122 255.041 130.183 255.041 130.183C255.041 130.183 248.001 129.651 244.773 125.668C241.545 121.685 239.378 121.738 239.378 121.738C239.296 121.216 239.239 120.724 239.2 120.264C239.2 120.092 239.172 119.934 239.161 119.762C240.259 118.811 241.096 117.629 241.602 116.315C242.262 115.984 243.074 115.875 243.705 115.458C243.866 115.35 244.013 115.223 244.141 115.082C244.774 114.538 245.176 113.8 245.273 113.003C245.374 112.132 245.329 111.253 245.142 110.395C244.918 109.126 244.588 107.827 243.794 106.829C242.999 105.831 241.811 105.229 240.665 104.671C237.563 103.152 234.452 101.65 231.333 100.162C230.724 99.8154 230.044 99.5903 229.336 99.5013C228.088 99.4352 226.967 100.232 225.959 100.989C225.557 101.283 225.173 101.598 224.807 101.931C224.495 102.188 224.212 102.472 223.959 102.78C222.781 104.251 222.281 107.02 222.799 108.858C222.962 109.44 223.313 109.608 223.746 109.602C223.104 110.791 222.77 112.104 222.771 113.436C222.778 114.893 223.178 116.326 223.935 117.602C224.692 118.878 225.781 119.956 227.102 120.737C227.102 120.922 227.102 121.104 227.119 121.279C227.134 121.957 227.11 122.636 227.048 123.312C227.048 123.312 219.245 127.241 218.369 129.099C217.493 130.956 214.261 132.285 214.261 132.285C214.261 132.285 208.1 135.207 208.1 145.562L204.872 160.164L204.287 188.043C204.287 188.043 204.691 187.712 205.351 187.243C205.33 187.428 205.312 187.62 205.294 187.815C205.207 188.88 205.177 189.949 205.206 191.017L205.163 191.268ZM244.571 263.423C244.45 263.849 244.273 264.415 244.049 265.076C243.95 264.527 243.851 263.985 243.751 263.469C244.007 263.446 244.28 263.433 244.571 263.423Z" fill="url(#paint2_linear)"/>
<path d="M233.916 259.999C233.916 259.999 232.784 264.738 231.078 266.579C229.372 268.42 227.138 272.109 225.165 271.844C223.193 271.58 222.622 275.53 226.297 276.055C229.972 276.581 237.58 275.004 237.58 275.004C237.58 275.004 244.078 272.36 244.358 270.529C244.639 268.698 242.663 259.209 242.663 259.209L233.916 259.999Z" fill="#53526B"/>
<path opacity="0.05" d="M233.916 259.999C233.916 259.999 232.784 264.738 231.078 266.579C229.372 268.42 227.138 272.109 225.165 271.844C223.193 271.58 222.622 275.53 226.297 276.055C229.972 276.581 237.58 275.004 237.58 275.004C237.58 275.004 244.078 272.36 244.358 270.529C244.639 268.698 242.663 259.209 242.663 259.209L233.916 259.999Z" fill="black"/>
<path d="M244.369 262.104C244.369 262.104 243.237 266.844 241.531 268.685C239.825 270.526 237.58 274.214 235.611 273.95C233.643 273.685 233.068 277.635 236.743 278.161C240.418 278.686 248.044 277.106 248.044 277.106C248.044 277.106 254.542 274.462 254.822 272.631C255.102 270.8 253.127 261.311 253.127 261.311L244.369 262.104Z" fill="#53526B"/>
<path d="M218.66 189.983C218.66 189.983 220.92 212.62 222.615 214.989C224.311 217.359 226.286 227.625 226.286 227.625L229.957 248.682C229.957 248.682 231.376 260.792 232.217 262.107C233.058 263.423 243.543 262.858 243.543 262.858L237.023 193.139L218.66 189.983Z" fill="#5F5D7E"/>
<path opacity="0.05" d="M218.66 189.983C218.66 189.983 220.92 212.62 222.615 214.989C224.311 217.359 226.286 227.625 226.286 227.625L229.957 248.682C229.957 248.682 231.376 260.792 232.217 262.107C233.058 263.423 243.543 262.858 243.543 262.858L237.023 193.139L218.66 189.983Z" fill="black"/>
<path d="M214.141 179.185L214.878 181.37L218.869 193.172L218.947 193.397H218.968C219.504 193.509 230.812 195.932 233.252 196.676C233.384 196.714 233.513 196.759 233.639 196.811C234.77 197.337 236.182 216.288 236.182 216.288C236.182 216.288 237.03 234.189 237.601 235.504C238.172 236.82 240.438 263.929 241.839 263.142C243.24 262.355 253.42 263.142 253.42 263.142C254.552 262.088 253.42 247.876 253.42 247.876L251.413 221.821C251.413 221.821 252.544 207.345 251.413 204.71C250.281 202.076 250.281 184.443 250.281 184.443L227.158 181.075L224.924 180.745L214.141 179.185Z" fill="#5F5D7E"/>
<path opacity="0.02" d="M214.879 181.373L218.869 193.175L218.965 193.407C219.501 193.519 230.809 195.942 233.249 196.686H233.494L227.176 181.079L226.996 180.629L224.942 180.751L214.879 181.373Z" fill="black"/>
<path opacity="0.1" d="M241.262 126.544C241.262 126.544 230.808 137.074 224.31 128.385L218.096 132.335L219.227 138.39L215.553 184.189C215.553 184.189 225.158 183.924 231.936 186.03C233.824 186.654 235.864 186.762 237.816 186.342C239.768 185.923 241.55 184.992 242.953 183.66L241.836 143.39L244.379 131.019L241.262 126.544Z" fill="black"/>
<path d="M241.262 125.754C241.262 125.754 230.808 136.284 224.31 127.595L218.096 131.545L219.227 137.6L215.553 183.399C215.553 183.399 225.158 183.134 231.936 185.24C233.824 185.864 235.864 185.972 237.816 185.552C239.768 185.133 241.55 184.202 242.953 182.87L241.836 142.6L244.379 130.229L241.262 125.754Z" fill="#53526B"/>
<path d="M220.395 172.647V174.306H219.828V173.202H217.753V174.306H217.182V172.651L220.395 172.647Z" fill="#E82127"/>
<path d="M219.888 172.112H217.695C217.552 172.08 217.42 172.012 217.315 171.915C217.21 171.818 217.136 171.697 217.1 171.563H220.48C220.443 171.696 220.369 171.818 220.264 171.915C220.159 172.011 220.027 172.079 219.884 172.112" fill="#E82127"/>
<path d="M239.709 171.583C239.671 171.715 239.597 171.835 239.492 171.931C239.388 172.027 239.258 172.095 239.116 172.128H238.194L238.148 172.145V174.313H237.58V172.145L237.527 172.128H236.605C236.464 172.094 236.334 172.026 236.23 171.93C236.126 171.834 236.051 171.714 236.013 171.583H239.709Z" fill="#E82127"/>
<path d="M219.508 180.242C219.508 180.242 219.508 187.087 217.812 189.983C216.117 192.878 206.231 191.305 206.231 191.305L208.207 181.564L219.508 180.242Z" fill="#D6DBE6"/>
<path d="M207.306 196.041C208.796 197.363 214.971 194.719 214.545 193.146C214.247 192.032 213.204 188.046 212.612 185.785L212.201 184.195C212.201 184.195 208.583 183.141 207.306 184.195C206.841 184.579 206.515 186.089 206.362 187.914C206.1 191.083 206.366 195.201 207.306 196.041Z" fill="#FDC2CC"/>
<path d="M220.908 130.49L230.794 137.596C230.794 137.596 245.482 136.806 241.811 130.226C240.212 127.332 239.248 124.17 238.973 120.925C238.854 119.728 238.854 118.523 238.973 117.326C238.973 117.326 225.413 105.758 227.108 118.906C227.242 119.915 227.32 120.93 227.343 121.946C227.545 131.816 220.908 130.49 220.908 130.49Z" fill="#FDC2CC"/>
<path opacity="0.1" d="M227.137 118.909C227.271 119.918 227.349 120.933 227.371 121.95C228.893 122.889 230.678 123.388 232.504 123.384C235.033 123.384 236.895 121.09 238.576 119.567C238.388 117.382 238.998 117.329 238.998 117.329C238.998 117.329 225.441 105.748 227.137 118.909Z" fill="black"/>
<path d="M232.504 122.859C237.652 122.859 241.826 118.97 241.826 114.173C241.826 109.376 237.652 105.487 232.504 105.487C227.356 105.487 223.183 109.376 223.183 114.173C223.183 118.97 227.356 122.859 232.504 122.859Z" fill="#FDC2CC"/>
<path opacity="0.1" d="M239.14 122.462C239.14 122.462 240.694 122.594 243.801 126.541C246.908 130.487 253.687 131.016 253.687 131.016C253.687 131.016 256.23 129.961 259.053 141.807C261.877 153.653 262.724 161.549 261.313 162.864C259.901 164.179 254.251 166.027 251.413 166.027C251.413 166.027 250.565 182.609 251.977 185.504C253.389 188.4 251.693 190.244 251.693 190.244L239.279 189.454C239.279 189.454 235.04 184.453 234.192 175.767C233.344 167.081 230.521 142.336 231.933 139.441C233.344 136.545 239.559 129.175 239.279 128.385C238.998 127.595 239.14 122.462 239.14 122.462Z" fill="black"/>
<path d="M239.172 122.383C239.172 122.383 241.261 122.33 244.368 126.279C247.475 130.229 254.25 130.755 254.25 130.755C254.25 130.755 256.793 129.7 259.617 141.546C262.44 153.392 263.288 161.288 261.876 162.603C260.464 163.918 254.814 165.763 251.991 165.763C251.991 165.763 251.143 182.345 252.555 185.24C253.966 188.135 252.271 189.979 252.271 189.979L239.856 189.189C239.856 189.189 235.618 184.189 234.77 175.503C233.922 166.817 231.092 142.075 232.503 139.193C233.915 136.311 240.129 128.927 239.849 128.137C239.569 127.347 239.172 122.383 239.172 122.383Z" fill="#D6DBE6"/>
<path opacity="0.1" d="M206.366 187.91C207.718 186.948 210.268 185.451 212.616 185.782L212.205 184.192C212.205 184.192 208.587 183.138 207.31 184.192C206.838 184.575 206.515 186.083 206.366 187.91Z" fill="black"/>
<path opacity="0.1" d="M227.294 124.042C227.294 124.042 220.09 128.385 219.242 130.229C218.394 132.073 215.287 133.389 215.287 133.389C215.287 133.389 209.356 136.284 209.356 146.55L206.249 161.026L220.373 179.453C220.373 179.453 222.069 161.026 222.917 156.551C223.764 152.076 224.892 143.661 224.892 143.661C224.892 143.661 229.131 138.661 228.563 137.345C227.996 136.03 227.294 124.042 227.294 124.042Z" fill="black"/>
<path d="M227.293 123.963C227.293 123.963 219.781 127.859 218.937 129.7C218.092 131.541 214.982 132.86 214.982 132.86C214.982 132.86 209.051 135.755 209.051 146.021L205.944 160.498L205.38 188.135C205.38 188.135 210.466 183.66 214.137 185.765C217.809 187.871 220.068 178.92 220.068 178.92C220.068 178.92 221.764 160.494 222.611 156.019C223.459 151.544 224.587 143.129 224.587 143.129C224.587 143.129 228.826 138.128 228.258 136.813C227.691 135.497 227.293 123.963 227.293 123.963Z" fill="#D6DBE6"/>
<path opacity="0.1" d="M224.321 103.606C224.799 103.039 225.352 102.531 225.967 102.092C226.939 101.339 228.014 100.552 229.22 100.618C229.902 100.703 230.557 100.922 231.142 101.26C234.145 102.734 237.14 104.223 240.127 105.728C241.23 106.283 242.368 106.872 243.138 107.87C243.908 108.868 244.22 110.15 244.436 111.406C244.617 112.257 244.661 113.128 244.564 113.991C244.476 114.837 244.035 115.616 243.337 116.162C242.532 116.708 241.429 116.711 240.755 117.425C240.364 117.838 240.194 118.417 239.917 118.919C239.641 119.421 239.162 119.911 238.616 119.821C238.069 119.732 237.74 119.193 237.662 118.648C237.627 118.095 237.661 117.541 237.764 116.995C237.871 116.004 237.736 114.953 237.119 114.216C236.693 113.713 236.083 113.409 235.672 112.894C234.686 111.651 235.136 109.589 234.054 108.422C233.74 108.117 233.345 107.895 232.909 107.779C232.472 107.663 232.011 107.657 231.571 107.761C230.695 107.933 229.894 108.376 229.088 108.752C228.001 109.264 226.861 109.673 225.687 109.975C224.701 110.226 223.559 110.828 223.222 109.605C222.707 107.81 223.186 105.064 224.321 103.606Z" fill="black"/>
<path d="M224.605 103.345C225.083 102.778 225.636 102.27 226.251 101.831C227.223 101.078 228.297 100.291 229.503 100.357C230.186 100.442 230.841 100.66 231.426 100.998C234.427 102.473 236.92 101.078 240.411 105.467C241.155 106.406 242.652 106.611 243.422 107.609C244.192 108.607 244.504 109.889 244.72 111.145C244.901 111.996 244.944 112.867 244.848 113.73C244.76 114.576 244.319 115.355 243.621 115.901C242.815 116.447 241.712 116.45 241.038 117.164C240.648 117.577 240.478 118.155 240.201 118.658C239.925 119.16 239.446 119.649 238.899 119.56C238.353 119.471 238.023 118.932 237.945 118.387C237.911 117.834 237.945 117.279 238.048 116.734C238.155 115.743 238.02 114.692 237.403 113.955C236.977 113.452 236.367 113.148 235.955 112.633C234.969 111.39 235.42 109.327 234.338 108.161C234.024 107.856 233.629 107.634 233.192 107.518C232.756 107.402 232.295 107.395 231.855 107.5C230.979 107.672 230.177 108.114 229.372 108.491C228.284 109.003 227.145 109.412 225.971 109.714C224.985 109.965 223.842 110.567 223.505 109.344C222.988 107.549 223.47 104.799 224.605 103.345Z" fill="#865A61"/>
<path opacity="0.1" d="M250.065 143.519C250.065 143.519 253.832 152.469 251.005 156.155L244.791 154.833C244.791 154.833 250.441 156.412 249.594 153.253C248.746 150.093 250.065 143.519 250.065 143.519Z" fill="black"/>
<path opacity="0.1" d="M252.122 165.634C252.122 165.634 243.928 166.159 241.669 164.579C244.644 166.696 248.158 168.057 251.867 168.529L252.122 165.634Z" fill="black"/>
<path opacity="0.1" d="M216.826 148.778C216.826 148.778 212.587 160.888 212.871 162.729C213.155 164.57 213.719 184.84 213.719 184.84L214.567 184.576L214.283 162.464L216.826 148.778Z" fill="black"/>
<path d="M253.119 163.578L156.285 90.8649C155.721 90.34 155.052 89.9238 154.316 89.6402C153.579 89.3567 152.79 89.2113 151.993 89.2124H147.878C156.101 79.394 159.994 67.0231 158.766 54.6219C157.537 42.2208 151.278 30.7233 141.265 22.4738C131.253 14.2244 118.24 9.84415 104.881 10.2263C91.5221 10.6085 78.8225 15.7242 69.3718 24.5305C59.9211 33.3367 54.431 45.1703 54.0208 57.6183C53.6107 70.0663 58.3115 82.1914 67.1647 91.5213C76.0179 100.851 88.3568 106.683 101.666 107.828C114.974 108.973 128.251 105.345 138.787 97.6834V101.514C138.786 102.257 138.942 102.992 139.247 103.678C139.551 104.365 139.998 104.988 140.561 105.513L237.395 178.226C237.955 178.753 238.622 179.171 239.357 179.456C240.092 179.742 240.88 179.888 241.676 179.888C242.472 179.888 243.26 179.742 243.995 179.456C244.73 179.171 245.397 178.753 245.957 178.226L253.094 171.583C254.233 170.523 254.874 169.085 254.879 167.585C254.884 166.085 254.251 164.644 253.119 163.578ZM106.46 89.2124C100.066 89.2124 93.8159 87.4457 88.4996 84.1357C83.1834 80.8257 79.0399 76.1212 76.5931 70.6169C74.1463 65.1126 73.5061 59.0559 74.7535 53.2126C76.0008 47.3693 79.0797 42.0019 83.6008 37.7891C88.1219 33.5763 93.8821 30.7074 100.153 29.5451C106.424 28.3828 112.924 28.9793 118.831 31.2593C124.738 33.5392 129.787 37.4002 133.339 42.3539C136.891 47.3076 138.787 53.1315 138.787 59.0893C138.791 63.0463 137.957 66.9651 136.333 70.6215C134.71 74.2779 132.329 77.6003 129.327 80.3986C126.324 83.197 122.759 85.4163 118.835 86.9298C114.912 88.4433 110.706 89.2211 106.46 89.219V89.2124Z" fill="url(#paint3_linear)"/>
<path d="M253.829 162.917L156.995 90.2038C156.431 89.6789 155.762 89.2627 155.026 88.9791C154.289 88.6955 153.5 88.5501 152.703 88.5512H148.588C156.811 78.7329 160.704 66.3619 159.476 53.9608C158.247 41.5596 151.988 30.0622 141.975 21.8127C131.963 13.5632 118.95 9.18302 105.591 9.56517C92.2321 9.94733 79.5325 15.0631 70.0818 23.8693C60.6311 32.6756 55.1409 44.5091 54.7308 56.9572C54.3207 69.4052 59.0215 81.5303 67.8746 90.8602C76.7278 100.19 89.0667 106.022 102.375 107.167C115.684 108.312 128.961 104.684 139.497 97.0223V100.853C139.496 101.595 139.652 102.331 139.957 103.017C140.261 103.703 140.708 104.327 141.271 104.852L238.105 177.565C238.665 178.092 239.332 178.51 240.067 178.795C240.802 179.08 241.59 179.227 242.386 179.227C243.182 179.227 243.97 179.08 244.705 178.795C245.44 178.51 246.107 178.092 246.667 177.565L253.804 170.922C254.942 169.862 255.584 168.424 255.589 166.924C255.594 165.424 254.961 163.983 253.829 162.917ZM107.17 88.5512C100.776 88.5512 94.5258 86.7845 89.2096 83.4746C83.8933 80.1646 79.7498 75.46 77.303 69.9558C74.8563 64.4515 74.2161 58.3948 75.4634 52.5515C76.7108 46.7082 79.7897 41.3408 84.3108 37.128C88.8319 32.9152 94.5921 30.0463 100.863 28.884C107.134 27.7217 113.634 28.3182 119.541 30.5981C125.448 32.8781 130.497 36.739 134.049 41.6927C137.601 46.6464 139.497 52.4704 139.497 58.4282C139.501 62.3852 138.667 66.3039 137.043 69.9604C135.42 73.6168 133.039 76.9392 130.037 79.7375C127.034 82.5358 123.469 84.7552 119.545 86.2687C115.622 87.7821 111.416 88.56 107.17 88.5578V88.5512Z" fill="#0092B2"/>
<path d="M246.628 156.287C246.628 156.287 232.493 141.182 234.479 151.547C235.898 158.918 241.258 162.867 243.801 163.657C246.344 164.447 246.628 156.287 246.628 156.287Z" fill="#FDC2CC"/>
<path d="M250.019 142.336C250.019 142.336 250.303 152.076 251.714 153.392C253.126 154.707 250.867 156.287 250.867 156.287L245.216 154.965C245.216 154.965 246.635 163.651 240.697 162.6C240.697 162.6 244.652 166.02 248.607 166.549C252.562 167.078 252.278 165.759 252.278 165.759L258.209 159.179L250.019 142.336Z" fill="#D6DBE6"/>
<path d="M251.583 165.902L257.315 164.728L256.549 162.266L253.002 160.944L248.391 162.927L251.583 165.902Z" fill="#D6DBE6"/>
<path d="M110.706 70.9118L118.336 65.4285C118.336 65.4285 113.225 66.4498 113.37 58.8381C113.369 58.8128 113.369 58.7874 113.37 58.7621C113.37 58.0746 113.441 57.321 113.548 56.4915C114.857 46.3348 104.393 55.2719 104.393 55.2719C104.483 56.1711 104.483 57.0762 104.393 57.9755C104.393 57.9986 104.393 58.025 104.393 58.0482C104.186 60.5511 103.445 62.9905 102.215 65.2236C99.3737 70.3003 110.706 70.9118 110.706 70.9118Z" fill="#FDC2CC"/>
<path opacity="0.1" d="M105.368 56.5642C106.663 57.7375 107.454 59.8693 109.401 59.8693C110.81 59.8722 112.189 59.487 113.363 58.7621C113.363 58.0746 113.434 57.321 113.541 56.4915C114.849 46.3348 104.386 55.2719 104.386 55.2719C104.386 55.2719 105.507 54.9116 105.368 56.5642Z" fill="black"/>
<path d="M109.4 59.5387C113.373 59.5387 116.594 56.5377 116.594 52.8359C116.594 49.134 113.373 46.1331 109.4 46.1331C105.428 46.1331 102.207 49.134 102.207 52.8359C102.207 56.5377 105.428 59.5387 109.4 59.5387Z" fill="#FDC2CC"/>
<path opacity="0.1" d="M116.3 44.2525C115.887 43.7667 115.411 43.3314 114.881 42.9569C114.051 42.3124 113.129 41.6348 112.097 41.6943C111.513 41.7668 110.952 41.9537 110.451 42.243C107.879 43.5055 105.747 42.3124 102.757 46.067C102.119 46.8702 100.838 47.0586 100.179 47.9014C99.5188 48.7442 99.2528 49.8514 99.0648 50.9289C98.9094 51.6577 98.8724 52.4042 98.9549 53.1433C99.0337 53.8688 99.416 54.5361 100.019 55.0008C100.707 55.4668 101.654 55.4701 102.232 56.0816C102.523 56.4799 102.761 56.9093 102.942 57.3607C103.176 57.7904 103.587 58.1969 104.055 58.1341C104.524 58.0713 104.804 57.5987 104.871 57.1425C104.901 56.6705 104.871 56.1969 104.783 55.7313C104.694 54.8951 104.807 53.9828 105.336 53.3516C105.691 52.9186 106.223 52.6608 106.574 52.2212C107.418 51.1602 107.035 49.3788 107.961 48.3938C108.232 48.1348 108.571 47.9473 108.945 47.8503C109.319 47.7533 109.714 47.7504 110.089 47.8419C110.835 48.0402 111.55 48.3268 112.217 48.6946C113.148 49.1326 114.124 49.4836 115.129 49.7423C115.973 49.9572 116.952 50.4728 117.24 49.4118C117.69 47.8518 117.268 45.4985 116.3 44.2525Z" fill="black"/>
<path d="M116.3 43.9219C115.887 43.4361 115.411 43.0008 114.881 42.6263C114.051 41.9818 113.129 41.3043 112.097 41.3638C111.513 41.4362 110.952 41.6232 110.451 41.9124C107.879 43.175 105.747 41.9818 102.757 45.7365C102.119 46.5396 100.838 46.728 100.179 47.5708C99.5188 48.4136 99.2528 49.5208 99.0648 50.5983C98.9094 51.3272 98.8724 52.0736 98.9549 52.8128C99.0337 53.5382 99.416 54.2055 100.019 54.6703C100.707 55.1363 101.654 55.1396 102.232 55.751C102.523 56.1493 102.761 56.5788 102.942 57.0301C103.176 57.4598 103.587 57.8663 104.055 57.8035C104.524 57.7407 104.804 57.2681 104.871 56.812C104.901 56.3399 104.871 55.8663 104.783 55.4007C104.694 54.5645 104.807 53.6523 105.336 53.021C105.691 52.588 106.223 52.3302 106.574 51.8906C107.418 50.8297 107.035 49.0482 107.961 48.0633C108.232 47.8042 108.571 47.6167 108.945 47.5197C109.319 47.4228 109.714 47.4199 110.089 47.5113C110.835 47.7096 111.55 47.9962 112.217 48.364C113.148 48.8021 114.124 49.153 115.129 49.4118C115.973 49.6266 116.952 50.1422 117.24 49.0813C117.69 47.5212 117.268 45.168 116.3 43.9219Z" fill="#865A61"/>
<path opacity="0.1" d="M102.208 74.4383L102.066 79.5117C104.127 80.0337 106.254 80.2971 108.39 80.295C108.745 80.295 109.117 80.295 109.479 80.2719C111.373 80.1958 113.251 79.9096 115.073 79.4192H115.108C115.445 79.3266 115.779 79.2308 116.108 79.125H116.144L116.445 79.0258C117.594 78.6491 118.708 78.1894 119.78 77.6509L119.847 77.6179C119.964 77.5584 120.081 77.4989 120.202 77.4361L119.652 70.5977L120.528 65.9078L115.733 62.8637C115.463 63.2259 115.162 63.5665 114.832 63.8817C114.358 64.3424 113.804 64.7247 113.193 65.0121C109.752 66.5919 105.836 64.08 103.889 62.5266L103.446 62.1597C102.942 61.7334 102.655 61.4425 102.655 61.4425L100.257 64.8931L102.208 74.4383Z" fill="black"/>
<path d="M102.208 74.7689L102.066 79.8423C104.127 80.3643 106.254 80.6277 108.39 80.6256C108.745 80.6256 109.117 80.6256 109.479 80.6024C111.373 80.5264 113.251 80.2401 115.073 79.7497H115.108C115.445 79.6572 115.779 79.5613 116.108 79.4556H116.144L116.445 79.3564C117.594 78.9796 118.708 78.5199 119.78 77.9815L119.847 77.9484C119.964 77.8889 120.081 77.8294 120.202 77.7666L119.652 70.9283L120.528 66.2383L115.733 63.1943C115.463 63.5565 115.162 63.897 114.832 64.2123C114.358 64.673 113.804 65.0552 113.193 65.3426C109.752 66.9225 105.836 64.4106 103.889 62.8572L103.446 62.4903C102.942 62.0639 102.655 61.7731 102.655 61.7731L100.257 65.2236L102.208 74.7689Z" fill="#53526B"/>
<path d="M115.502 75.1753C115.502 75.1753 115.764 77.122 116.108 79.4489H116.144L116.445 79.3497C117.593 78.9729 118.708 78.5132 119.779 77.9748L119.847 77.9417C119.964 77.8822 120.081 77.8227 120.201 77.7599C121.774 76.9375 123.242 75.953 124.578 74.825L124.695 74.7225C125.428 74.1043 126.117 73.4419 126.756 72.7394L126.831 72.6568C125.564 68.5617 122.929 67.2727 122.929 67.2727C122.929 67.2727 120.531 66.2547 119.875 64.8335C119.219 63.4123 113.427 60.408 113.427 60.408V60.4311C113.427 60.6856 113.334 63.0157 113.196 65.3591C113.107 66.8827 112.997 68.413 112.87 69.3847C112.842 69.7004 112.78 70.0127 112.685 70.3168C112.235 71.3182 115.502 75.1753 115.502 75.1753Z" fill="#555388"/>
</g>
<defs>
<linearGradient id="paint0_linear" x1="182.416" y1="262.626" x2="182.416" y2="12.986" gradientUnits="userSpaceOnUse">
<stop stop-color="#808080" stop-opacity="0.25"/>
<stop offset="0.54" stop-color="#808080" stop-opacity="0.12"/>
<stop offset="1" stop-color="#808080" stop-opacity="0.1"/>
</linearGradient>
<linearGradient id="paint1_linear" x1="13267" y1="20475.3" x2="13267" y2="15634.6" gradientUnits="userSpaceOnUse">
<stop stop-color="#808080" stop-opacity="0.25"/>
<stop offset="0.54" stop-color="#808080" stop-opacity="0.12"/>
<stop offset="1" stop-color="#808080" stop-opacity="0.1"/>
</linearGradient>
<linearGradient id="paint2_linear" x1="-62022.9" y1="155890" x2="-62022.9" y2="58431.3" gradientUnits="userSpaceOnUse">
<stop stop-color="#808080" stop-opacity="0.25"/>
<stop offset="0.54" stop-color="#808080" stop-opacity="0.12"/>
<stop offset="1" stop-color="#808080" stop-opacity="0.1"/>
</linearGradient>
<linearGradient id="paint3_linear" x1="96178.5" y1="96416.8" x2="96178.5" y2="9269.92" gradientUnits="userSpaceOnUse">
<stop stop-color="#808080" stop-opacity="0.25"/>
<stop offset="0.54" stop-color="#808080" stop-opacity="0.12"/>
<stop offset="1" stop-color="#808080" stop-opacity="0.1"/>
</linearGradient>
<clipPath id="clip0">
<rect width="395" height="279" fill="white"/>
</clipPath>
</defs>
</svg>
