<svg width="228" height="165" viewBox="0 0 228 165" fill="none" xmlns="http://www.w3.org/2000/svg">
<g clip-path="url(#clip0)">
<path d="M145.001 165C190.84 165 228 161.012 228 156.092C228 151.172 190.84 147.184 145.001 147.184C99.1612 147.184 62.001 151.172 62.001 156.092C62.001 161.012 99.1612 165 145.001 165Z" fill="#3F3D56"/>
<path opacity="0.3" d="M104.431 72.7855L194.521 72.7855V-3.8147e-05L104.431 -3.8147e-05L104.431 72.7855Z" fill="#3F3D56"/>
<path d="M188.771 6.66882H162.096V41.3468H188.771V6.66882Z" fill="#F2F2F2"/>
<path d="M119.925 8.76477L145.643 8.76477V6.66885L119.925 6.66885V8.76477Z" fill="#F2F2F2"/>
<path d="M162.095 48.7777H171.2V46.6818H162.095V48.7777Z" fill="#F2F2F2"/>
<path d="M162.415 52.5885L188.451 52.5885V50.4926L162.415 50.4926V52.5885Z" fill="#F2F2F2"/>
<path d="M114.655 16.3862L151.713 16.3862V14.2903L114.655 14.2903V16.3862Z" fill="#F2F2F2"/>
<path d="M114.655 22.293L151.713 22.293V20.1971L114.655 20.1971V22.293Z" fill="#F2F2F2"/>
<path d="M114.655 28.1997L151.713 28.1997V26.1038L114.655 26.1038V28.1997Z" fill="#F2F2F2"/>
<path d="M114.655 34.1063L151.713 34.1063V32.0104L114.655 32.0104V34.1063Z" fill="#F2F2F2"/>
<path d="M114.655 40.0131L151.713 40.0131V37.9171L114.655 37.9171V40.0131Z" fill="#F2F2F2"/>
<path d="M114.655 45.9197L151.713 45.9197V43.8237L114.655 43.8237V45.9197Z" fill="#F2F2F2"/>
<path d="M114.655 51.8264L151.713 51.8264V49.7305L114.655 49.7305V51.8264Z" fill="#F2F2F2"/>
<path d="M166.101 26.4707C166.495 26.1355 166.931 25.8749 167.392 25.698C170.317 24.4 173.381 23.6043 176.493 23.3348C179.2 23.1059 182.133 23.3777 184.246 25.4065C184.575 25.6943 184.844 26.0682 185.033 26.4994C185.299 27.1839 185.218 27.9795 185.132 28.7269C185.113 29.0168 185.051 29.3006 184.951 29.5655C184.666 30.2115 183.966 30.4378 183.358 30.3603C182.75 30.2829 182.179 29.9759 181.579 29.8336C181.208 29.7564 180.832 29.7107 180.455 29.6971L176.693 29.4541C174.353 29.303 171.982 29.1544 169.687 29.7177C168.98 29.8692 168.298 30.1498 167.663 30.5497C167.139 30.9008 166.786 31.4045 166.299 30.7561C165.445 29.6168 164.972 27.5229 166.101 26.4707Z" fill="#2F2E41"/>
<path d="M171.932 28.4555C171.932 28.4555 176.993 25.7492 178.913 28.8718C180.832 31.9944 177.865 30.7454 177.865 30.7454L174.55 31.9945L170.885 31.1618L171.932 28.4555Z" fill="#F2F2F2"/>
<path d="M172.194 26.4778C172.194 26.4778 172.892 30.4331 172.369 31.474C171.845 32.5149 175.336 33.9721 175.336 33.9721L178.652 32.3067C178.652 32.3067 177.779 25.8533 178.652 24.6042L172.194 26.4778Z" fill="#FFB9B9"/>
<path opacity="0.1" d="M172.194 26.4778C172.194 26.4778 172.892 30.4331 172.369 31.474C171.845 32.5149 175.336 33.9721 175.336 33.9721L178.652 32.3067C178.652 32.3067 177.779 25.8533 178.652 24.6042L172.194 26.4778Z" fill="black"/>
<path d="M180.222 22.5225C180.221 24.1784 179.669 25.7661 178.687 26.937C177.705 28.1079 176.374 28.7663 174.986 28.7677C174.674 28.7683 174.363 28.7349 174.056 28.6678C173.076 28.4567 172.167 27.9167 171.435 27.1112C170.704 26.3056 170.18 25.2679 169.925 24.1198C169.67 22.9716 169.696 21.7606 169.997 20.6288C170.299 19.4971 170.865 18.4914 171.629 17.7299C172.394 16.9684 173.324 16.4825 174.311 16.3294C175.299 16.1762 176.302 16.3621 177.204 16.8651C178.106 17.3682 178.869 18.1677 179.403 19.1697C179.938 20.1717 180.222 21.3348 180.222 22.5225Z" fill="#FFB9B9"/>
<path d="M183.383 41.5373H166.686L167.064 39.5767L168.703 31.0577L170.597 29.5315L170.599 29.5296L171.489 28.8112L171.931 28.4549C171.931 28.4549 172.193 28.5978 172.495 28.7922C172.583 28.8513 172.672 28.9122 172.762 28.977C172.763 28.9751 172.763 28.977 172.763 28.977C172.908 29.0774 173.046 29.1914 173.176 29.3181C173.2 29.3448 173.22 29.3676 173.241 29.3924C173.573 29.7887 174.543 31.8923 176.147 30.8157C176.228 30.7626 176.306 30.7041 176.381 30.6404C176.799 30.2953 177.198 29.9179 177.575 29.5105C177.912 29.1428 178.131 28.8589 178.309 28.6626C178.39 28.5672 178.481 28.4863 178.581 28.4225C178.656 28.3754 178.74 28.3512 178.825 28.3521C179.349 28.3521 180.047 29.6001 180.047 29.6001L180.068 29.6725L180.07 29.6782L182.272 37.5665L183.383 41.5373Z" fill="#F2F2F2"/>
<path d="M166.686 41.5373H171.746C171.758 40.8395 171.727 40.1416 171.655 39.449C171.501 38.0562 171.12 36.7148 170.881 35.3391C170.67 34.1336 170.568 32.9046 170.576 31.6731C170.577 31.5036 170.58 31.3321 170.593 31.1606C170.606 30.7679 170.701 30.3853 170.87 30.0479C170.989 29.8287 171.154 29.642 171.282 29.4324C171.326 29.3638 171.365 29.2905 171.398 29.2133V29.2114C171.414 29.1735 171.429 29.1348 171.441 29.0952C171.47 29.0041 171.486 28.9083 171.489 28.8113C171.518 28.1825 171.04 27.5766 170.525 27.3175C169.8 26.9931 169.008 26.955 168.264 27.2088C167.527 27.463 166.815 27.8105 166.14 28.2454C165.911 28.3788 165.685 28.5159 165.466 28.6684C165.204 28.8451 164.964 29.063 164.752 29.3162C164.209 29.985 163.971 30.9167 163.779 31.818C163.596 32.5069 163.534 33.2332 163.595 33.952C163.597 33.9749 163.602 33.9996 163.605 34.0225C163.795 35.2096 164.606 36.1013 165.039 37.195C165.541 38.4639 165.507 39.9425 165.308 41.3258C165.298 41.3963 165.287 41.4668 165.276 41.5373H166.686V41.5373Z" fill="#2F2E41"/>
<path d="M187.285 33.9139C186.65 36.4053 186.189 38.9552 185.906 41.5373H178.693C178.504 40.9238 178.316 40.3096 178.129 39.6948C177.979 39.2309 177.851 38.7577 177.744 38.2772C177.63 37.7186 177.576 37.1449 177.583 36.57C177.583 36.4328 177.587 36.2937 177.597 36.1565C177.598 36.1555 177.598 36.1541 177.598 36.1527C177.598 36.1513 177.598 36.15 177.597 36.1489C177.641 35.4238 177.782 34.7117 178.014 34.0396C178.121 33.7341 178.243 33.4369 178.381 33.1498C178.717 32.4258 179.122 31.7437 179.483 31.0349C179.708 30.6017 179.904 30.1481 180.07 29.6782C180.07 29.6772 180.07 29.6762 180.07 29.6752C180.07 29.6742 180.071 29.6733 180.071 29.6725C180.287 29.0733 180.399 28.4287 180.402 27.7767C180.391 26.9364 179.199 25.4711 180.495 25.6121C182.263 25.8027 183.782 27.0164 185.167 28.3997C185.536 28.7694 185.897 29.1524 186.25 29.5296C186.796 30.1165 187.373 30.7567 187.537 31.6122C187.564 31.7486 187.579 31.8877 187.584 32.0276C187.574 32.672 187.473 33.3098 187.285 33.9139Z" fill="#2F2E41"/>
<path d="M176.473 31.616C176.292 31.0307 176.013 30.495 175.654 30.0407C175.292 29.6758 174.864 29.4169 174.403 29.2847C173.806 29.0812 173.189 28.9757 172.568 28.9709C171.829 28.9654 170.972 29.2019 170.658 30.0001C170.409 30.634 170.602 31.3846 170.853 32.0175C170.96 32.3453 171.139 32.6331 171.37 32.8512C171.689 33.1081 172.101 33.0999 172.479 33.186C173.065 33.3634 173.62 33.6633 174.118 34.0718L175.412 35.0052L177.636 36.6084C177.577 36.5662 177.598 34.7473 177.53 34.4492C177.31 33.4889 176.815 32.5253 176.473 31.616Z" fill="#FFB9B9"/>
<path d="M180.09 19.2678C179.997 18.8943 179.792 18.5749 179.514 18.3704C179.528 17.9703 179.487 17.5702 179.392 17.1861C179.075 16.068 178.324 16.1321 177.616 15.6377C177.308 15.4232 177.327 15.2337 177.167 14.8814C176.957 14.4196 176.643 14.0373 176.26 13.7779C175.806 13.4323 175.326 13.0764 174.788 13.0327C173.657 12.9408 172.791 14.209 171.71 14.616C171.234 14.7954 170.723 14.8028 170.244 14.9724C169.765 15.142 169.287 15.547 169.216 16.1366C169.183 16.4087 169.241 16.688 169.208 16.9601C169.141 17.5009 168.744 17.8797 168.477 18.3245C167.889 19.3082 167.956 20.6979 168.427 21.7682C168.526 21.9897 168.64 22.2016 168.766 22.402C168.806 22.9079 168.927 23.3998 169.125 23.8499C169.596 24.9202 170.406 25.72 171.253 26.3845C171.183 26.0295 171.141 25.6678 171.127 25.3037C171.115 25.1824 171.128 25.0594 171.166 24.9456C171.26 24.7106 171.509 24.648 171.699 24.5193C172.092 24.2527 172.246 23.6626 172.258 23.123C172.269 22.5835 172.173 22.0431 172.221 21.5063C172.223 21.3829 172.246 21.2613 172.29 21.1494C172.333 21.0375 172.396 20.9377 172.474 20.8565C172.619 20.7577 172.785 20.7106 172.952 20.7206C173.758 20.6814 174.6 20.6637 175.311 20.2091C175.541 20.0274 175.787 19.8787 176.045 19.766C176.65 19.5781 177.267 20.0832 177.615 20.7014C177.964 21.3197 178.137 22.0553 178.458 22.694C178.78 23.3326 179.335 23.9021 179.956 23.8265C179.991 23.8266 180.025 23.8179 180.057 23.8009C180.089 23.7839 180.118 23.7591 180.141 23.7281C180.168 23.6707 180.18 23.6051 180.175 23.5396L180.21 20.7074C180.239 20.2229 180.199 19.7361 180.09 19.2678Z" fill="#2F2E41"/>
<path d="M166.281 38.1819C166.395 39.2965 166.463 40.415 166.487 41.5373H162.095V37.1339C162.117 37.0272 162.141 36.9224 162.17 36.8176C162.445 35.8078 163.021 34.9618 163.521 34.0834C163.545 34.0396 163.571 33.9957 163.595 33.9519C163.807 33.5814 163.99 33.1878 164.141 32.7763C164.213 32.5743 164.328 31.5969 164.449 31.5131C164.97 31.1529 165.393 32.6925 165.465 33.0355C165.721 34.2568 165.943 35.4896 166.11 36.7338C166.176 37.2159 166.233 37.6986 166.281 38.1819Z" fill="#2F2E41"/>
<path d="M188.48 41.5373H178.396C178.309 41.2953 178.225 41.0534 178.135 40.8133C177.507 39.1167 176.693 37.526 175.717 36.0822C175.556 35.8913 175.451 35.6433 175.418 35.3753C175.415 35.2641 175.438 35.1539 175.484 35.0571C175.637 34.7161 176.043 34.516 176.372 34.3541C176.712 34.1907 177.025 33.9558 177.295 33.6605C177.534 33.4037 177.717 33.0813 177.829 32.7211C177.858 32.6155 177.881 32.5072 177.896 32.3972C177.942 32.4696 177.99 32.5439 178.036 32.6163C178.15 32.7954 178.265 32.9726 178.381 33.1498C179.5 34.8628 180.728 36.5509 182.273 37.5665C182.676 37.8347 183.102 38.0513 183.544 38.2125C183.586 38.2346 183.632 38.2461 183.678 38.2461C183.724 38.2461 183.77 38.2346 183.812 38.2125C183.878 38.1486 183.919 38.0571 183.929 37.9571C184.066 37.2712 184.114 36.5643 184.215 35.8688C184.4 34.6035 184.755 33.3822 185.268 32.2524C185.553 31.6179 186.483 29.2991 187.072 30.7605C187.242 31.1816 187.412 31.6039 187.584 32.0276C187.691 32.2962 187.799 32.563 187.908 32.8317C188.309 33.684 188.491 34.6577 188.433 35.6326C188.449 37.6027 188.465 39.571 188.48 41.5373Z" fill="#2F2E41"/>
<path opacity="0.1" d="M166.686 41.5373H167.559L167.064 39.5767L166.35 36.751C166.358 37.2294 166.335 37.7078 166.281 38.1819C166.174 39.1618 165.939 40.1158 165.585 41.0095C165.516 41.1829 165.443 41.3582 165.384 41.5373H166.686Z" fill="black"/>
<path opacity="0.1" d="M184.484 35.5118C184.361 35.9065 184.472 36.343 184.567 36.7486C184.842 37.9251 184.97 39.1434 184.948 40.3643C184.952 40.3857 184.951 40.4079 184.946 40.429C184.941 40.45 184.932 40.4692 184.919 40.4849C184.906 40.5005 184.891 40.5121 184.873 40.5186C184.856 40.5251 184.837 40.5263 184.819 40.5221C184.416 40.5515 183.955 40.5546 183.682 40.2004L184.484 35.5118Z" fill="black"/>
<path opacity="0.3" d="M90.09 0.749146H0V73.5347H90.09V0.749146Z" fill="#3F3D56"/>
<path d="M32.4256 7.41797H5.75V42.0959H32.4256V7.41797Z" fill="#F2F2F2"/>
<path d="M74.5961 7.41797H48.8789V9.51389H74.5961V7.41797Z" fill="#F2F2F2"/>
<path d="M15.1752 47.431H6.07031V49.527H15.1752V47.431Z" fill="#F2F2F2"/>
<path d="M32.107 51.2418H6.07031V53.3377H32.107V51.2418Z" fill="#F2F2F2"/>
<path d="M79.8669 15.0396H42.8086V17.1355H79.8669V15.0396Z" fill="#F2F2F2"/>
<path d="M79.8669 20.9462H42.8086V23.0421H79.8669V20.9462Z" fill="#F2F2F2"/>
<path d="M79.8669 26.8529H42.8086V28.9488H79.8669V26.8529Z" fill="#F2F2F2"/>
<path d="M79.8669 32.7595H42.8086V34.8554H79.8669V32.7595Z" fill="#F2F2F2"/>
<path d="M79.8669 38.6663H42.8086V40.7622H79.8669V38.6663Z" fill="#F2F2F2"/>
<path d="M79.8669 44.573H42.8086V46.6689H79.8669V44.573Z" fill="#F2F2F2"/>
<path d="M79.8669 50.4796H42.8086V52.5755H79.8669V50.4796Z" fill="#F2F2F2"/>
<path d="M31.7002 42.2865H28.2324C27.9656 41.431 27.7287 40.5647 27.5216 39.6875C27.3849 38.6563 26.9908 37.6981 26.3906 36.9381C26.2074 36.6944 26.0443 36.4302 25.9035 36.1493C25.6062 35.4574 25.4989 34.6715 25.5968 33.9028C25.6167 33.6889 25.6466 33.4764 25.6862 33.2664C25.838 32.4528 26.0919 31.6716 26.3044 30.879C26.3493 30.718 26.4312 30.5753 26.5408 30.4672C26.6504 30.359 26.7832 30.2898 26.9242 30.2673C27.1528 30.2217 27.3876 30.254 27.6014 30.3607C27.6487 30.3837 27.6942 30.4117 27.7372 30.4445C28.1158 30.717 28.3122 31.2734 28.4704 31.7821C29.194 34.0991 29.917 36.416 30.6396 38.7329C30.7801 39.1826 30.9207 39.6336 31.0613 40.0858C31.2689 40.7488 31.475 41.4119 31.6507 42.0883C31.6683 42.155 31.6842 42.2198 31.7002 42.2865Z" fill="#D0CDE1"/>
<path d="M17.264 11.791C16.4018 12.1383 15.6207 12.9507 15.4441 14.0157C15.3623 14.5093 15.4125 15.0225 15.3436 15.5189C15.1838 16.6703 14.4262 17.5496 13.7273 18.3664C13.0285 19.1831 12.3068 20.1322 12.2558 21.2976C12.2 22.5738 12.9759 23.7694 12.8416 25.0373C12.6856 26.5103 11.3814 27.4648 11.0589 28.8988C10.8436 29.8564 11.1075 30.8879 11.5415 31.7333C12.3686 33.3445 13.7824 34.4382 15.288 35.0246C16.7936 35.611 18.397 35.7343 19.9807 35.7541C21.9091 35.7782 24.0027 35.5808 25.4516 34.0626C26.2792 33.1877 26.799 31.9719 26.9066 30.6591C27.0443 28.9006 26.429 27.0835 26.8534 25.3915C27.1205 24.3266 27.7903 23.3541 27.6904 22.249C27.5926 21.1684 26.8015 20.4025 26.2587 19.5296C25.752 18.7146 25.4445 17.7521 25.1431 16.8032L24.1119 13.5565C23.9092 12.9183 23.6866 12.247 23.2349 11.8281C22.3892 11.0439 21.0293 11.198 20.0405 11.3597C19.1231 11.5098 18.1463 11.4356 17.264 11.791Z" fill="#2F2E41"/>
<path d="M18.0622 22.4908C18.0622 22.4908 18.1631 26.1026 17.8603 26.4638C17.5576 26.825 19.0715 29.2328 19.0715 29.2328L21.7966 29.1124L23.2096 27.7881L21.9985 25.8618C21.9985 25.8618 21.4938 22.7316 21.8975 22.0093C22.3013 21.2869 18.0622 22.4908 18.0622 22.4908Z" fill="#A0616A"/>
<path opacity="0.1" d="M18.0622 22.4908C18.0622 22.4908 18.1631 26.1026 17.8603 26.4638C17.5576 26.825 19.0715 29.2328 19.0715 29.2328L21.7966 29.1124L23.2096 27.7881L21.9985 25.8618C21.9985 25.8618 21.4938 22.7316 21.8975 22.0093C22.3013 21.2869 18.0622 22.4908 18.0622 22.4908Z" fill="black"/>
<path d="M19.7272 23.8753C21.7339 23.8753 23.3607 21.9349 23.3607 19.5412C23.3607 17.1475 21.7339 15.207 19.7272 15.207C17.7205 15.207 16.0938 17.1475 16.0938 19.5412C16.0938 21.9349 17.7205 23.8753 19.7272 23.8753Z" fill="#A0616A"/>
<path d="M21.59 42.2865H24.5355C24.6458 42.0484 24.7496 41.8007 24.8694 41.5758V41.5739C25.0003 41.302 25.1845 41.0719 25.4061 40.9032C25.547 40.8263 25.6804 40.731 25.8038 40.6193C25.922 40.4665 26.0055 40.2802 26.0466 40.0782C26.2495 39.3222 26.3614 38.5357 26.3789 37.7422C26.3837 37.4754 26.3789 37.2049 26.3916 36.9381C26.3979 36.7297 26.4204 36.5224 26.4587 36.3189C26.5598 35.9051 26.7065 35.5091 26.8948 35.1414C27.2941 34.2744 27.6945 33.4075 28.096 32.5405C28.1684 32.2963 28.1962 32.0364 28.1775 31.7784C28.1688 31.4302 28.0792 31.0918 27.9187 30.8009C27.8628 30.6809 27.8021 30.5608 27.7382 30.4446C27.4918 29.9756 27.2048 29.5388 26.882 29.1413C26.1971 28.2845 25.3658 27.6132 24.4445 27.173C24.3289 27.1266 24.2188 27.0626 24.117 26.9825C23.9969 26.8614 23.8953 26.7164 23.8167 26.5538C23.4973 25.9803 23.1075 25.3344 22.5309 25.3706C22.437 25.3144 22.3347 25.2811 22.23 25.2726C22.1252 25.2641 22.0201 25.2805 21.9207 25.321C21.8904 25.3304 21.8605 25.3419 21.8312 25.3553C21.6109 25.4717 21.3969 25.6047 21.1907 25.7535C20.6602 26.082 20.059 26.2122 19.4656 26.127C19.396 26.1212 19.3278 26.1005 19.2643 26.066C19.197 26.0151 19.1348 25.955 19.079 25.8869C18.9332 25.7445 18.7584 25.6508 18.5724 25.6153C18.3863 25.5798 18.1957 25.6039 18.02 25.685C17.855 25.7551 17.7092 25.8776 17.5983 26.0394C17.4929 26.1975 17.4194 26.388 17.3028 26.5367C17.0009 26.9215 16.5025 26.9368 16.0616 26.9349C15.146 26.9044 14.2306 27.0048 13.335 27.234C12.5484 27.4422 11.8133 27.8663 11.1882 28.4725L11.1866 28.4744C11.1003 28.5621 11.0204 28.6516 10.9406 28.7469C10.7589 28.951 10.6143 29.1975 10.5157 29.4709C10.3943 29.8444 10.4103 30.2655 10.3 30.6447C10.1786 31.0696 9.90869 31.4163 9.80007 31.8431C9.71701 32.1671 9.72819 32.5253 9.59082 32.8187C9.59721 32.8244 9.602 32.8301 9.60839 32.8358C10.1898 33.4456 10.6866 34.2458 11.2696 34.8498C11.608 35.1573 11.8942 35.5389 12.113 35.974C12.1551 36.0718 12.1899 36.1738 12.2168 36.2789C12.2824 36.6431 12.3114 37.0154 12.3031 37.3878C12.3766 39.1693 13.1864 40.7851 14.0921 42.2027C14.1097 42.2313 14.1273 42.2599 14.1464 42.2865L21.59 42.2865Z" fill="#0092B2"/>
<path d="M12.1126 35.9739C11.9752 37.1114 11.8367 38.2483 11.6972 39.3846C11.6338 39.9931 11.5388 40.5963 11.4129 41.1909C11.3299 41.5586 11.2228 41.9187 11.1478 42.2864H6.98828C6.9904 42.0805 7.00374 41.8749 7.02821 41.671C7.13532 40.9385 7.3094 40.2223 7.54735 39.5351C8.03135 37.9765 8.51481 36.4166 8.99774 34.8555C9.20379 34.1905 9.38109 33.495 9.60792 32.8357C9.64786 32.7138 9.69098 32.5919 9.73731 32.4737C9.9785 31.8411 10.6478 32.1003 11.143 32.1955C11.2789 32.2157 11.4114 32.2607 11.5359 32.3289C11.6864 32.4278 11.8134 32.5708 11.9049 32.7443C12.3745 33.5731 12.2723 34.6687 12.1509 35.6595C12.1381 35.7643 12.1253 35.8691 12.1126 35.9739Z" fill="#D0CDE1"/>
<path d="M24.8692 41.5758C24.8756 41.6024 24.9443 41.8863 25.0577 42.2865H21.5898C23.3086 41.934 24.8692 41.5739 24.8692 41.5739V41.5758Z" fill="#2F2E41"/>
<path d="M20.03 19.5411C22.2039 19.5411 23.9662 18.4092 23.9662 17.0129C23.9662 15.6166 22.2039 14.4846 20.03 14.4846C17.8561 14.4846 16.0938 15.6166 16.0938 17.0129C16.0938 18.4092 17.8561 19.5411 20.03 19.5411Z" fill="#2F2E41"/>
<path d="M147.803 27.5441H57.7129V100.33H147.803V27.5441Z" fill="#3F3D56"/>
<path opacity="0.1" d="M134.705 95.3757C140.527 95.3757 145.247 94.7785 145.247 94.0419C145.247 93.3053 140.527 92.7081 134.705 92.7081C128.882 92.7081 124.162 93.3053 124.162 94.0419C124.162 94.7785 128.882 95.3757 134.705 95.3757Z" fill="black"/>
<path d="M90.1394 34.2129H63.4639V68.8908H90.1394V34.2129Z" fill="#F2F2F2"/>
<path d="M72.0534 50.1346C72.14 50.166 72.2331 50.1606 72.3168 50.1194C72.4004 50.0781 72.4696 50.0036 72.5123 49.9084C72.8813 49.215 72.202 48.3208 72.3491 47.5185C72.4669 46.8757 73.0793 46.4942 73.2044 45.8534C73.3261 45.2308 72.9513 44.5289 73.2046 43.9655C73.4031 43.5242 73.8989 43.408 74.3138 43.4853C74.7287 43.5627 75.1225 43.7802 75.5416 43.8107C76.1001 43.8513 76.6324 43.558 77.1786 43.4127C77.7247 43.2674 78.3908 43.3243 78.712 43.8708C79.1246 44.5724 78.7061 45.5494 78.8497 46.3891C78.9638 47.0559 79.4317 47.608 79.4418 48.2884C79.4454 48.5303 78.9124 48.3354 78.9407 48.5749C78.9691 48.8144 78.7172 48.6036 78.9185 48.5751C79.0007 48.5511 79.0744 48.4965 79.1289 48.4192C79.1834 48.3419 79.2158 48.2459 79.2216 48.1452C79.2455 47.9457 79.5598 47.8792 79.5561 47.6777C79.5477 47.2055 80.2633 47.5239 80.3811 47.073C80.6522 46.022 80.5966 44.8896 80.2245 43.8835C80.0328 43.4725 79.8797 43.0375 79.768 42.5864C79.6629 41.9603 79.8283 41.2882 79.6549 40.6842C79.4212 39.8701 78.648 39.4551 77.9301 39.3709C77.2122 39.2866 76.4827 39.4374 75.7689 39.3132C75.1295 39.2018 74.5105 38.8712 73.8655 38.9191C73.0916 38.9766 72.4182 39.5714 71.8817 40.2392C71.3453 40.9071 70.8902 41.6752 70.281 42.2473C70.0945 42.4004 69.9224 42.5771 69.7677 42.7744C69.4574 43.2254 69.4259 43.868 69.5122 44.4424C69.5986 45.0167 69.7864 45.5646 69.8657 46.1404C69.9402 46.6815 69.9173 47.2343 69.9494 47.7813C69.9569 48.3331 70.0969 48.8706 70.3528 49.3303C70.4634 49.5094 70.6068 49.656 70.7721 49.759C70.9373 49.862 71.1201 49.9186 71.3065 49.9246C71.4356 49.9282 71.5447 49.7897 71.675 49.8258C71.8379 49.871 71.9088 50.0555 72.0534 50.1346Z" fill="#2F2E41"/>
<path d="M66.1875 69.0813C66.3041 67.1741 66.392 65.7488 66.392 65.7488L67.1459 63.3785L69.5659 69.0813L66.1875 69.0813Z" fill="#575A89"/>
<path opacity="0.1" d="M66.1875 69.0813C66.3041 67.174 66.392 65.7488 66.392 65.7488L67.1459 63.3785L69.5659 69.0813L66.1875 69.0813Z" fill="black"/>
<path d="M71.7949 50.3286C71.7949 50.3286 74.0514 57.1801 72.7522 58.4851C71.453 59.7902 80.0004 56.2829 80.0004 56.2829L79.7953 55.3856C79.7953 55.3856 76.9917 54.0806 78.3593 50.3286C79.7269 46.5766 71.7949 50.3286 71.7949 50.3286Z" fill="#A0616A"/>
<path opacity="0.1" d="M71.7949 50.3286C71.7949 50.3286 74.0514 57.1801 72.7522 58.4851C71.453 59.7902 80.0004 56.2829 80.0004 56.2829L79.7953 55.3856C79.7953 55.3856 76.9917 54.0806 78.3593 50.3286C79.7269 46.5766 71.7949 50.3286 71.7949 50.3286Z" fill="black"/>
<path d="M75.0092 53.1018C77.6527 53.1018 79.7957 50.5455 79.7957 47.3922C79.7957 44.2389 77.6527 41.6826 75.0092 41.6826C72.3657 41.6826 70.2227 44.2389 70.2227 47.3922C70.2227 50.5455 72.3657 53.1018 75.0092 53.1018Z" fill="#A0616A"/>
<path d="M86.6328 59.7088C86.6328 59.7088 86.6136 60.1622 86.5801 60.9549C86.5114 62.5687 86.3884 65.5926 86.2654 69.0813H67.7107C67.2259 68.3067 66.829 67.4591 66.5303 66.5605C66.4495 66.3 66.4026 66.0263 66.3913 65.7488C66.2891 63.5862 67.9136 60.5681 69.0605 60.2804C70.3591 59.9526 72.8206 56.8545 72.8206 56.8545C72.8285 56.9724 72.8613 57.0861 72.9161 57.1847C72.9709 57.2833 73.0457 57.3638 73.1337 57.4185V57.4204C73.3322 57.5427 73.5542 57.6006 73.7774 57.5881C74.5793 57.5881 78.1062 55.6465 79.2387 55.012C79.4608 54.8882 79.5901 54.8138 79.5901 54.8138C80.8962 55.4862 82.2455 56.0323 83.625 56.4468C84.3133 56.6515 84.9484 57.0567 85.4733 57.626C85.9982 58.1952 86.3966 58.9108 86.6328 59.7088Z" fill="#0092B2"/>
<path d="M71.2331 49.5637C71.3197 49.5951 71.4128 49.5897 71.4964 49.5485C71.5801 49.5072 71.6492 49.4326 71.692 49.3375C72.061 48.644 71.3817 47.7499 71.5288 46.9476C71.6466 46.3048 72.2589 45.9233 72.3841 45.2825C72.5058 44.6598 72.1309 43.958 72.3843 43.3946C72.5828 42.9532 73.0786 42.8371 73.4935 42.9144C73.9084 42.9917 74.3021 43.2093 74.7213 43.2398C75.2798 43.2804 75.8121 42.9871 76.3582 42.8418C76.9044 42.6965 77.5705 42.7534 77.8917 43.2998C78.3043 44.0015 77.8858 44.9785 78.0294 45.8182C78.1435 46.485 79.443 46.953 79.5608 46.5021C79.8319 45.4511 79.7763 44.3187 79.4042 43.3126C79.2125 42.9016 79.0594 42.4665 78.9477 42.0154C78.8426 41.3894 79.008 40.7173 78.8346 40.1132C78.6009 39.2992 77.8277 38.8842 77.1098 38.7999C76.3919 38.7157 75.6624 38.8665 74.9486 38.7422C74.3092 38.6309 73.6902 38.3003 73.0452 38.3482C72.2713 38.4057 71.5979 39.0005 71.0614 39.6683C70.525 40.3361 70.0699 41.1042 69.4607 41.6763C69.2741 41.8295 69.1021 42.0062 68.9474 42.2034C68.6371 42.6545 68.6056 43.2971 68.6919 43.8715C68.7783 44.4458 68.9661 44.9937 69.0454 45.5695C69.1199 46.1106 69.0969 46.6634 69.129 47.2104C69.1365 47.7621 69.2766 48.2997 69.5325 48.7594C69.6431 48.9384 69.7865 49.0851 69.9517 49.188C70.117 49.291 70.2998 49.3477 70.4862 49.3537C70.6153 49.3572 70.7244 49.2188 70.8547 49.2549C71.0176 49.3 71.0885 49.4846 71.2331 49.5637Z" fill="#2F2E41"/>
<path opacity="0.1" d="M89.0052 69.0813H83.5902C83.1781 65.4763 82.8379 61.7075 82.8379 61.7075L83.9321 61.1359L86.1556 59.7087C86.1556 59.7087 86.3185 60.1698 86.5804 60.9549C87.1395 62.6335 88.1538 65.7926 89.0052 69.0813Z" fill="black"/>
<path d="M89.4833 69.0813H83.3718C82.4662 65.1372 81.5732 60.85 81.5732 60.85L83.899 58.8113L86.6336 59.7087C86.6336 59.7087 88.2341 64.2531 89.4833 69.0813Z" fill="#0092B2"/>
<path d="M132.309 34.2129H106.592V36.3088H132.309V34.2129Z" fill="#F50057"/>
<path d="M72.8881 74.2258H63.7832V76.3218H72.8881V74.2258Z" fill="#F50057"/>
<path d="M89.8198 78.0366H63.7832V80.1326H89.8198V78.0366Z" fill="#F50057"/>
<path d="M137.58 41.8345H100.521V43.9304H137.58V41.8345Z" fill="#F2F2F2"/>
<path d="M137.58 47.7411H100.521V49.837H137.58V47.7411Z" fill="#F2F2F2"/>
<path d="M137.58 53.6477H100.521V55.7436H137.58V53.6477Z" fill="#F2F2F2"/>
<path d="M137.58 59.5544H100.521V61.6504H137.58V59.5544Z" fill="#F2F2F2"/>
<path d="M137.58 65.4611H100.521V67.557H137.58V65.4611Z" fill="#F2F2F2"/>
<path d="M137.58 71.3678H100.521V73.4637H137.58V71.3678Z" fill="#F2F2F2"/>
<path d="M137.58 77.2745H100.521V79.3705H137.58V77.2745Z" fill="#F2F2F2"/>
<path d="M144.723 77.5576L134.593 89.6415L130.335 84.5625C130.2 84.4013 130.04 84.2734 129.863 84.1862C129.687 84.0989 129.497 84.054 129.306 84.054C129.115 84.054 128.926 84.0989 128.749 84.1862C128.573 84.2734 128.412 84.4013 128.277 84.5625L128.124 84.2896C127.556 84.9676 127.709 86.3398 128.277 87.0178L133.801 93.6076C134.01 93.856 134.292 93.9955 134.586 93.9956C134.881 93.9957 135.163 93.8563 135.372 93.6081L146.781 80.0129C147.35 79.3352 147.556 78.0924 146.987 77.4143C146.419 76.7365 145.292 76.8798 144.723 77.5576Z" fill="#57B894"/>
<path opacity="0.1" d="M144.723 77.5576L134.593 89.6415L130.335 84.5625C130.2 84.4013 130.04 84.2734 129.863 84.1862C129.687 84.0989 129.497 84.054 129.306 84.054C129.115 84.054 128.926 84.0989 128.749 84.1862C128.573 84.2734 128.412 84.4013 128.277 84.5625L128.124 84.2896C127.556 84.9676 127.709 86.3398 128.277 87.0178L133.801 93.6076C134.01 93.856 134.292 93.9955 134.586 93.9956C134.881 93.9957 135.163 93.8563 135.372 93.6081L146.781 80.0129C147.35 79.3352 147.556 78.0924 146.987 77.4143C146.419 76.7365 145.292 76.8798 144.723 77.5576Z" fill="black"/>
<path d="M144.723 77.0219L134.593 89.1058L130.335 84.0269C130.2 83.8656 130.04 83.7378 129.863 83.6505C129.686 83.5633 129.497 83.5184 129.306 83.5184C129.115 83.5184 128.926 83.5633 128.749 83.6505C128.572 83.7378 128.412 83.8656 128.277 84.0269C128.142 84.1881 128.035 84.3795 127.961 84.5901C127.888 84.8008 127.851 85.0265 127.851 85.2545C127.851 85.4825 127.888 85.7083 127.961 85.9189C128.035 86.1296 128.142 86.321 128.277 86.4822L133.801 93.072C134.01 93.3203 134.292 93.4599 134.586 93.46C134.881 93.4601 135.163 93.3207 135.371 93.0725L146.781 79.4773C146.916 79.3161 147.023 79.1248 147.096 78.9142C147.17 78.7035 147.207 78.4778 147.207 78.2497C147.207 78.0217 147.17 77.7959 147.097 77.5853C147.024 77.3746 146.916 77.1832 146.781 77.0219C146.508 76.6964 146.138 76.5136 145.752 76.5135C145.366 76.5135 144.996 76.6964 144.723 77.0219Z" fill="#57B894"/>
<path opacity="0.1" d="M219.252 147.012C219.252 160.637 203.331 156.423 183.837 156.423C164.343 156.423 148.658 160.637 148.658 147.012C148.658 133.387 164.577 130.424 184.071 130.424C203.565 130.424 219.252 133.387 219.252 147.012Z" fill="black"/>
<path d="M219.252 144.467C219.252 158.092 203.331 153.877 183.837 153.877C164.343 153.877 148.658 158.092 148.658 144.467C148.658 130.842 164.577 127.878 184.071 127.878C203.565 127.878 219.252 130.842 219.252 144.467Z" fill="#3F3D56"/>
<path d="M152.697 101.782L151.975 102.782C151.975 102.782 143.203 103.764 143.559 105.463C143.915 107.161 154.121 103.198 154.121 103.198L152.697 101.782Z" fill="#FFC1C7"/>
<path d="M168.598 100.933C168.598 100.933 159.224 104.897 154.121 103.198L156.494 108.86C156.494 108.86 168.598 108.435 170.734 105.887C172.87 103.339 168.598 100.933 168.598 100.933Z" fill="#F50057"/>
<path opacity="0.1" d="M168.598 100.933C168.598 100.933 159.224 104.897 154.121 103.198L156.494 108.86C156.494 108.86 168.598 108.435 170.734 105.887C172.87 103.339 168.598 100.933 168.598 100.933Z" fill="#B22000"/>
<path d="M162.249 70.5707C165.723 70.5707 168.539 67.2119 168.539 63.0686C168.539 58.9252 165.723 55.5664 162.249 55.5664C158.776 55.5664 155.96 58.9252 155.96 63.0686C155.96 67.2119 158.776 70.5707 162.249 70.5707Z" fill="#FFC1C7"/>
<path d="M167.612 70.1117C167.828 70.6047 168.103 71.0583 168.427 71.4589C169.288 72.5769 170.316 73.4944 171.458 74.1649C167.888 75.0303 164.283 75.6698 160.657 76.0809C161.039 74.4726 160.535 72.7524 159.858 71.2886C159.181 69.8249 158.317 68.4607 157.894 66.8671L162.145 67.0034C162.916 67.0281 163.69 67.0557 164.461 67.0106C165.037 66.977 165.997 66.5651 166.535 66.7168C167.673 67.0375 167.115 68.9083 167.612 70.1117Z" fill="#FFC1C7"/>
<path d="M181.888 105.321L185.448 110.417C185.448 110.417 191.381 126.978 178.447 128.677C165.512 130.375 155.9 127.403 155.9 127.403C155.9 127.403 150.679 124.43 150.561 126.695C150.442 128.96 149.967 135.33 147.119 141.558L144.627 148.352C144.627 148.352 143.322 149.909 143.678 152.033C144.034 154.156 135.727 154.864 135.846 152.033C135.846 152.033 137.033 149.626 137.033 148.211C137.033 146.795 138.931 143.398 138.931 143.398L142.373 123.015C142.373 123.015 142.135 112.54 150.205 114.522C158.274 116.504 169.784 114.097 169.784 114.097L172.395 103.198L181.888 105.321Z" fill="#2F2E41"/>
<path opacity="0.1" d="M181.888 105.321L185.448 110.417C185.448 110.417 191.381 126.978 178.447 128.677C165.512 130.375 155.9 127.403 155.9 127.403C155.9 127.403 150.679 124.43 150.561 126.695C150.442 128.96 149.967 135.33 147.119 141.558L144.627 148.352C144.627 148.352 143.322 149.909 143.678 152.033C144.034 154.156 135.727 154.864 135.846 152.033C135.846 152.033 137.033 149.626 137.033 148.211C137.033 146.795 138.931 143.398 138.931 143.398L142.373 123.015C142.373 123.015 142.135 112.54 150.205 114.522C158.274 116.504 169.784 114.097 169.784 114.097L172.395 103.198L181.888 105.321Z" fill="black"/>
<path d="M168.539 104.948C168.539 104.948 179.397 100.084 185.449 110.417C185.449 110.417 186.991 126.412 180.821 127.12C174.65 127.828 166.581 127.686 164.682 125.28C162.783 122.873 150.798 116.079 150.798 116.079C150.798 116.079 144.832 112.449 143.662 117.166C142.492 121.882 142.373 123.015 142.373 123.015C142.373 123.015 136.202 128.394 133.71 129.385C133.71 129.385 132.049 132.216 131.1 132.216C130.15 132.216 124.336 133.773 124.929 128.535L134.541 118.061L144.153 106.878C144.153 106.878 146.882 102.065 153.884 104.613C158.53 106.263 163.243 107.633 168.005 108.718L168.539 104.948Z" fill="#2F2E41"/>
<path d="M143.323 151.749C143.323 151.749 145.577 158.544 143.679 159.393C141.78 160.242 137.745 159.676 137.745 159.676C137.745 159.676 132.999 158.968 131.812 159.11C130.625 159.252 125.76 158.119 126.472 155.854C127.184 153.59 130.863 154.156 130.863 154.156L134.185 152.316C134.185 152.316 134.541 150.9 135.372 151.466C136.203 152.033 138.576 154.156 143.323 151.749Z" fill="#CBCEDA"/>
<path d="M130.982 131.649C130.982 131.649 133.473 138.302 129.439 137.736C125.404 137.17 122.319 136.179 121.132 136.037C119.991 135.901 116.763 134.586 117.258 131.967C117.285 131.797 117.296 131.625 117.29 131.453C117.29 131.101 117.691 130.411 120.895 130.517C120.895 130.517 123.268 130.517 124.218 128.535C124.218 128.535 127.778 133.914 130.982 131.649Z" fill="#CBCEDA"/>
<path d="M157.918 75.0295C157.918 75.0295 166.462 68.6597 173.582 75.0295C180.702 81.3992 185.448 110.417 185.448 110.417L168.954 106.029C168.954 106.029 168.242 102.632 167.293 102.065C166.343 101.499 166.225 99.093 166.225 99.093C166.225 99.093 161.122 97.2528 161.478 90.1753C161.834 83.0978 157.918 75.0295 157.918 75.0295Z" fill="#B22000"/>
<path d="M162.309 75.3126H157.918C157.918 75.3126 155.308 78.8514 154.952 87.769L153.528 94.8465C153.528 94.8465 150.561 103.339 152.341 104.755C154.121 106.17 157.562 106.029 158.274 103.198C158.986 100.367 163.852 83.9472 163.852 83.9472L162.309 75.3126Z" fill="#B22000"/>
<path d="M161.05 53.3051C162.139 52.7726 163.33 52.6109 164.491 52.838C165.652 53.065 166.738 53.672 167.627 54.5912C169.906 57.0172 170.366 60.9749 170.942 64.553C171.518 68.1312 172.677 72.1159 175.504 73.4954C174.23 73.6984 172.936 73.6535 171.674 73.3624L175.946 77.9295L168.749 75.1312C166.49 74.253 164.118 73.3638 161.779 73.8598C157.904 74.6814 155.207 79.0266 151.485 80.5531L151.898 78.1458L149.401 78.1229C150 77.595 150.489 76.9112 150.832 76.1236C150.714 75.9531 150.569 75.8125 150.405 75.7101C150.241 75.6077 150.061 75.5456 149.877 75.5274C148.836 67.783 152.691 60.1275 157.716 55.0679C158.704 54.0726 159.797 53.1168 161.074 52.8678C162.35 52.6189 163.84 53.2997 164.284 54.7487" fill="#4E2918"/>
<path d="M52.165 124.281C52.165 140.574 60.7339 153.758 71.3234 153.758L52.165 124.281Z" fill="#3F3D56"/>
<path d="M71.3242 153.758C71.3242 137.282 80.8866 123.95 92.7038 123.95L71.3242 153.758Z" fill="#F50057"/>
<path d="M59.1074 125.758C59.1074 141.234 64.5716 153.758 71.3243 153.758L59.1074 125.758Z" fill="#F50057"/>
<path d="M71.3242 153.758C71.3242 132.705 82.3768 115.67 96.0358 115.67L71.3242 153.758Z" fill="#3F3D56"/>
<path d="M67.293 153.966C67.293 153.966 70.0099 153.866 70.8288 153.17C71.6476 152.475 75.0082 151.644 75.2113 152.76C75.4144 153.875 79.2944 158.308 76.227 158.337C73.1595 158.367 69.0996 157.767 68.2823 157.173C67.4651 156.579 67.293 153.966 67.293 153.966Z" fill="#A8A8A8"/>
<path opacity="0.2" d="M76.2817 157.949C73.2142 157.978 69.1543 157.379 68.337 156.785C67.7147 156.333 67.4667 154.71 67.3837 153.961C67.3262 153.964 67.293 153.966 67.293 153.966C67.293 153.966 67.4651 156.579 68.2823 157.173C69.0996 157.767 73.1595 158.367 76.227 158.337C77.1124 158.329 77.4183 157.953 77.4015 157.396C77.2785 157.732 76.9408 157.942 76.2817 157.949Z" fill="black"/>
</g>
<defs>
<clipPath id="clip0">
<rect width="228" height="165" fill="white"/>
</clipPath>
</defs>
</svg>
